<?xml version="1.0" standalone="no"?>
<!DOCTYPE svg PUBLIC "-//W3C//DTD SVG 1.1//EN" "http://www.w3.org/Graphics/SVG/1.1/DTD/svg11.dtd" >
<svg xmlns="http://www.w3.org/2000/svg">
<metadata>
This is a custom SVG webfont generated by Font Squirrel.
Copyright   : Copyright c 2007 by Thomas HuotMarchand  256 All rights reserved
Designer    : Thomas HuotMarchand
Foundry     : Thomas HuotMarchand  256
Foundry URL : httpwww256tmcom
</metadata>
<defs>
<font id="Minuscule2Regular" horiz-adv-x="1150" >
<font-face units-per-em="2048" ascent="1692" descent="-356" />
<missing-glyph horiz-adv-x="976" />
<glyph unicode=" "  horiz-adv-x="976" />
<glyph unicode="&#x09;" horiz-adv-x="976" />
<glyph unicode="&#xa0;" horiz-adv-x="976" />
<glyph unicode="!" horiz-adv-x="706" d="M147 0v403h412v-403h-412zM147 1692h412l-182 -1000h-45z" />
<glyph unicode="&#x22;" horiz-adv-x="874" d="M-55 1649h405l-145 -535h-113zM526 1649h406l-146 -535h-112z" />
<glyph unicode="#" horiz-adv-x="1935" d="M147 221v334l400 -166zM147 991v334l400 -168zM412 -43l166 399l167 -399h-333zM412 1589h333l-167 -399zM578 389v768h780v-768h-780zM1188 -43l170 399l168 -399h-338zM1188 1589h338l-168 -399zM1391 389l397 166v-334zM1391 1157l397 168v-334z" />
<glyph unicode="$" horiz-adv-x="1538" d="M137 1169q0 113 32 199t80 136t119.5 82t137 44t145.5 17l-51 309h320l-54 -307h406v-295l-854 121l2 -601l350 76q68 14 136.5 16.5t141 -9t134 -46t111.5 -89t79 -142.5t29 -203t-33 -201t-83 -136t-125 -80.5t-142.5 -42t-151.5 -15.5l54 -307h-320l51 305h-506v319 l975 -147l-2 600l-350 -72q-41 -8 -95.5 -9t-129 7.5t-143 40t-129 81.5t-97.5 140t-37 209z" />
<glyph unicode="%" horiz-adv-x="1904" d="M145 0l1287 1649h325l-2 -234l-1419 -1415h-191zM188 1149v498h496v-498h-496zM1260 0v498h495v-498h-495z" />
<glyph unicode="&#x26;" horiz-adv-x="1949" d="M147 414q0 154 77 266.5t198 153.5v-637h872q-55 -106 -189 -173t-319 -67h-14q-346 0 -485.5 105.5t-139.5 351.5zM227 1286q0 166 160 286t414 120h14q307 0 449.5 -111t142.5 -303q0 -123 -95 -217t-200 -94v510h-612l2 -275l1167 -975l-158 330h289v-602h-186 l-1188 997q-199 154 -199 334z" />
<glyph unicode="'" horiz-adv-x="550" d="M74 1575h403l-145 -535h-113z" />
<glyph unicode="(" horiz-adv-x="937" d="M203 657q0 162 18.5 301.5t66.5 269.5t121.5 221t192.5 145.5t270 54.5v-234h-344v-1415h344v-242q-170 0 -301 72t-209.5 198t-118.5 284.5t-40 344.5z" />
<glyph unicode=")" horiz-adv-x="937" d="M66 0h344v1415h-344v234q154 0 271.5 -54.5t192 -145.5t121.5 -221t65.5 -268.5t18.5 -302.5q0 -186 -40 -344.5t-118.5 -284.5t-209.5 -198t-301 -72v242z" />
<glyph unicode="*" horiz-adv-x="1406" d="M205 571l2 275l485 213l-211 -488h-276zM205 1294v275h276l211 -488zM715 1059l487 -213v-275h-276zM715 1081l213 488h274v-275z" />
<glyph unicode="+" horiz-adv-x="1847" d="M205 518v402l665 -148l-147 666h401l-145 -666l663 148v-402l-663 148l145 -666h-401l147 666z" />
<glyph unicode="," horiz-adv-x="876" d="M8 -317l318 727h409v-410z" />
<glyph unicode="-" horiz-adv-x="1255" d="M147 653v236h959v-236h-959z" />
<glyph unicode="." horiz-adv-x="800" d="M147 0v506h504v-506h-504z" />
<glyph unicode="/" horiz-adv-x="1234" d="M145 -356l680 2005h265l-3 -263l-763 -1742h-179z" />
<glyph unicode="0" horiz-adv-x="1814" d="M236 823.5q0 202.5 31.5 353t105 271.5t208 182.5t327 61.5t326.5 -61.5t208 -182.5t105.5 -271.5t31.5 -353t-31.5 -352t-105.5 -270.5t-208 -182.5t-326.5 -61.5t-327 61.5t-208 182.5t-105 270.5t-31.5 352zM561 188h690v1272h-690v-1272z" />
<glyph unicode="1" horiz-adv-x="1331" d="M215 1184v325l623 140v-1469h319v-180h-905v180h319v1286z" />
<glyph unicode="2" horiz-adv-x="1538" d="M236 1401v248h561q78 0 139 -9.5t130 -41t113 -86t73.5 -151.5t29.5 -231q0 -217 -103.5 -344t-228.5 -127h-475v-471l828 111v-299h-1061v455q0 115 38.5 206t86 138t112 80.5t88 40t43.5 10.5h398v545z" />
<glyph unicode="3" horiz-adv-x="1726" d="M236 0v303l974 -63v503l-622 -77v225l418 -2q201 -2 343 -108.5t142 -317.5q0 -229 -189.5 -346t-594.5 -117h-471zM297 1370v279h410q203 0 348 -35t224 -96.5t115 -134t36 -158.5q0 -78 -28 -133.5t-74 -83t-94 -40t-101 -12.5v476z" />
<glyph unicode="4" horiz-adv-x="1593" d="M133 442v367l494 840h336l-773 -1157l1270 256v-306h-512l123 -442h-393l121 442h-666z" />
<glyph unicode="5" horiz-adv-x="1687" d="M133 0v319l1098 -147l-2 600l-920 -115v992h858v184h215v-479l-792 184v-723l291 135q72 33 156.5 39t168.5 -22.5t152.5 -86t111.5 -163t43 -240.5q0 -96 -24.5 -173t-59 -126t-94 -85t-110.5 -53t-127 -26.5t-124 -11.5t-120 -2h-721z" />
<glyph unicode="6" horiz-adv-x="1812" d="M236 725q0 307 122 924h908v-234l-711 60v-1285h795v607h-699q8 10 23.5 26.5t64.5 57.5t100.5 72.5t126 58t144.5 26.5q260 0 389 -113.5t129 -375.5q0 -592 -708 -592h-39q-25 0 -95.5 12.5t-136 37t-144.5 80.5t-135.5 135t-95 209t-38.5 294z" />
<glyph unicode="7" horiz-adv-x="1593" d="M133 1341v308h1327v-367l-891 -1282h-395l1169 1536z" />
<glyph unicode="8" horiz-adv-x="1814" d="M236 440q0 213 145 331t342 118h369q197 0 342 -118t145 -331q0 -121 -27.5 -203.5t-99.5 -149.5t-209 -98.5t-344 -31.5q-203 0 -336 31.5t-203.5 98.5t-97 149.5t-26.5 203.5zM299 1268q0 78 8 129t42 112.5t96.5 97t177 60.5t276.5 25q168 0 286 -25t182.5 -60.5 t99 -97t43 -112.5t8.5 -129q0 -61 -31 -113.5t-75 -83.5t-88 -53.5t-75 -30.5l-30 -8v496h-623v-496q-12 2 -31.5 8t-71 30.5t-91.5 54.5t-71.5 82.5t-31.5 113.5zM516 197h782v469h-782v-469z" />
<glyph unicode="9" horiz-adv-x="1812" d="M184 1100q0 592 709 592h39q25 0 95.5 -12.5t136 -37t144 -81t135 -135t95.5 -209t39 -293.5q0 -307 -123 -924h-907v233l710 -59v1284h-794v-606h698q-8 -10 -23.5 -26.5t-64.5 -57.5t-100 -72.5t-126 -58.5t-145 -27q-260 0 -389 114t-129 376z" />
<glyph unicode=":" horiz-adv-x="819" d="M205 0v412h411v-412h-411zM205 831v414h411v-414h-411z" />
<glyph unicode=";" horiz-adv-x="821" d="M-115 -317l318 727h411l-2 -410zM203 831v414h411v-414h-411z" />
<glyph unicode="&#x3c;" horiz-adv-x="1333" d="M162 573v457l622 619h500l-1120 -848l1120 -842h-508z" />
<glyph unicode="=" horiz-adv-x="1255" d="M147 236v237h959v-237h-959zM147 963v237h959v-237h-959z" />
<glyph unicode="&#x3e;" horiz-adv-x="1333" d="M162 -41l1120 842l-1120 848h500l622 -619v-457l-614 -614h-508z" />
<glyph unicode="?" horiz-adv-x="1361" d="M158 1401v248h561q78 0 139.5 -8.5t129 -37t112.5 -76.5t74.5 -133t29.5 -200q0 -219 -103.5 -346t-228.5 -127q-190 0 -290 61v-245q-236 0 -236 190q0 70 32 122t74 77.5t98 42t94 19.5t73 3h213v484zM317 -43v405h406v-405h-406z" />
<glyph unicode="@" horiz-adv-x="2035" d="M205 532q0 514 583 515q12 0 34 -3.5t83.5 -18.5t113.5 -39.5t112.5 -74t95.5 -114.5v-428h-279l58 442h-523v-621h1020v1262q-184 0 -561 -1t-561 -1q18 76 92 128t176.5 74.5t184 31t161.5 8.5q428 0 631 -222.5t205 -672.5v-2q-14 -436 -245.5 -636t-659.5 -200 q-176 0 -302 26.5t-224.5 90t-146.5 177t-48 279.5z" />
<glyph unicode="A" horiz-adv-x="1927" d="M186 0v180h146v207l506 1262h256l508 -1262v-207h141v-180h-416v705h-725l2 -705h-418z" />
<glyph unicode="B" horiz-adv-x="2054" d="M225 0v180h203v1295h-203v174l779 43q47 2 91 2q142 0 255 -25q147 -33 226 -97.5t114.5 -140t35.5 -163.5q0 -78 -27.5 -133.5t-74.5 -83t-95 -40t-102 -12.5v476h-714v-1295h792v563l-622 -77v225l417 -2q129 -2 234.5 -43t179.5 -140.5t74 -242.5q0 -242 -197 -382 q-169 -121 -483 -121q-50 0 -104 3l-664 37h-115z" />
<glyph unicode="C" horiz-adv-x="1685" d="M184 750q0 186 20.5 320t73 249t141.5 184.5t227 107.5t331 38h504v-316l-971 123v-1255l991 63q-20 -104 -112.5 -178t-199 -101.5t-212.5 -27.5q-393 0 -593 202t-200 591z" />
<glyph unicode="D" horiz-adv-x="1970" d="M225 0v180h203v1295h-203v174h768q2 -4 28 1q9 2 21 1q21 0 52 -5q47 -9 105 -16.5t125 -38t131.5 -67.5t124.5 -106.5t105.5 -153.5t73 -209t27.5 -275q0 -164 -44 -295t-113.5 -210.5t-153.5 -137t-168 -83t-154 -39t-113 -15.5h-45h-770zM713 242h745v1173h-745v-1173 z" />
<glyph unicode="E" horiz-adv-x="1724" d="M225 0v180h203v1295h-203v174h1233v-295l-745 121v-1295l745 123v-303h-1233zM780 858l535 -147v293z" />
<glyph unicode="F" horiz-adv-x="1662" d="M225 0v180h203v1288h-203v181h1233v-295l-745 121v-1475h-488zM780 858l535 146v-293z" />
<glyph unicode="G" horiz-adv-x="1890" d="M184 750q0 186 20.5 320t73 249t141.5 184.5t227 107.5t331 38h504v-316l-971 123v-1255h801l-90 506h485v-160h-168l111 -590h-672q-393 0 -593 202t-200 591z" />
<glyph unicode="H" horiz-adv-x="2109" d="M225 0v180h144v1295h-144v174h488l-123 -693h930l-125 693h489v-174h-143v-1295h143v-180h-489l125 696h-930l123 -696h-488z" />
<glyph unicode="I" d="M225 0v180h209v1295h-209v174h701v-174h-207v-1295h207v-180h-701z" />
<glyph unicode="J" horiz-adv-x="1361" d="M123 -43v377l665 -182v1312l-309 -59v244h637v-799q0 -186 -20.5 -320.5t-72.5 -247t-141 -181t-228.5 -106.5t-331.5 -38h-199z" />
<glyph unicode="K" horiz-adv-x="2062" d="M225 1468v177h428v-1645h-420v178h134v1290h-142zM834 874l497 775h529v-168h-142l-733 -602l954 -701v-178h-575v178z" />
<glyph unicode="L" horiz-adv-x="1601" d="M225 0v180h203v1295h-203v174h701v-174h-213v-1356l565 151v172h180v-442h-1233z" />
<glyph unicode="M" horiz-adv-x="2916" d="M164 0v180h145l219 1295h-137v174h404l-213 -1649h-418zM817 1649h326l313 -1459l316 1459h325l-426 -1274v-195h-428v195zM2122 1649h403v-174h-137l219 -1295h146v-180h-418z" />
<glyph unicode="N" horiz-adv-x="2150" d="M225 0v180h144v1295h-144v174h361l4 -11l61 -1638h-426zM590 1638v11h266l723 -1649h-270zM1520 1649h426v-174h-142v-1475h-225z" />
<glyph unicode="O" horiz-adv-x="2062" d="M184 774q0 422 218.5 671t625.5 249q412 0 631 -249t219 -671q0 -379 -234.5 -601t-615.5 -222q-379 0 -611.5 223t-232.5 600zM522 182h1014v1293h-1014v-1293z" />
<glyph unicode="P" horiz-adv-x="1910" d="M225 0v180h203v1295h-203v174h768q147 0 256 -14.5t202 -52.5t151.5 -101.5t91 -161.5t32.5 -234q0 -156 -50 -266t-137 -166.5t-177 -80t-193 -23.5q-209 0 -385 199l-36 43h696v624h-731v-1415h-488z" />
<glyph unicode="Q" horiz-adv-x="2015" d="M182 823q0 397 204 633t587 236q387 0 590.5 -234.5t203.5 -634.5q0 -356 -219 -568t-575 -212q-354 0 -572.5 212t-218.5 568zM508 285h930v1173h-930v-1173zM1544 0h553v-428z" />
<glyph unicode="R" horiz-adv-x="2019" d="M225 0v180h203v1295h-203v174h768q137 0 231.5 -8.5t197 -38t164 -82t101 -146.5t39.5 -227q0 -160 -73.5 -265.5t-190.5 -142.5q-86 -27 -183 -27q-35 0 -72 4q-138 13 -269 75l819 -611h119v-180h-440l-605 854h613v561h-731v-1415h-488z" />
<glyph unicode="S" horiz-adv-x="1714" d="M225 1169q0 96 23.5 173t58.5 126.5t92.5 85t107.5 54t122.5 28t119 11.5t113.5 2h498v-295l-854 121l2 -601l350 76q68 14 136 17h22q59 0 120 -10q73 -11 134 -45.5t111.5 -89t79 -142.5t28.5 -203q0 -96 -23.5 -173t-59.5 -126t-95.5 -85t-109.5 -53t-126 -26.5 t-124 -11.5t-120 -2h-598v319l975 -147l-2 600l-350 -72q-41 -8 -95 -9h-12q-50 0 -117 7q-75 8 -143.5 40t-129 82t-97.5 140t-37 209z" />
<glyph unicode="T" horiz-adv-x="1808" d="M143 1245v404h1522v-404h-170v156l-479 149l24 -1370h215v-180h-702v180h205l22 1370l-465 -149v-156h-172z" />
<glyph unicode="U" horiz-adv-x="2217" d="M195 1475v174h450l-2 -1450h932v1450h448v-174h-122v-738q0 -356 -219.5 -568t-573.5 -212t-572.5 212t-218.5 568v738h-122z" />
<glyph unicode="V" horiz-adv-x="2048" d="M180 1475v174h443l178 -1385h465l168 1385h434v-174h-144v-213l-446 -1262h-508l-444 1262v213h-146z" />
<glyph unicode="W" horiz-adv-x="3037" d="M143 1475v174h443l162 -1385h509l68 1213h397l56 -1213h534l150 1385h432v-174h-144v-213l-446 -1262h-555l-227 1012l-232 -1012h-557l-444 1262v213h-146z" />
<glyph unicode="X" horiz-adv-x="1947" d="M225 0v174l580 653l-580 648v174h418l-2 -568h666v568h415v-174l-579 -648l579 -653v-174h-415v569h-664v-569h-418z" />
<glyph unicode="Y" horiz-adv-x="1875" d="M184 1475v174h418l-2 -785h676v785h416v-174h-142v-383l-503 -496l36 -416h142v-180h-555v180h131l35 404q-39 25 -506 508v383h-146z" />
<glyph unicode="Z" horiz-adv-x="1863" d="M266 0v408l1211 1128l-1211 -195v308h1327v-367l-1235 -1151l1239 236v-367h-1331z" />
<glyph unicode="[" horiz-adv-x="958" d="M168 -244v1893h620v-234l-344 49v-1515l344 49v-242h-620z" />
<glyph unicode="\" horiz-adv-x="1234" d="M145 1649h265l680 -2007h-177l-766 1744z" />
<glyph unicode="]" horiz-adv-x="958" d="M168 -2l344 -49v1515l-344 -49v234h620v-1893h-620v242z" />
<glyph unicode="^" horiz-adv-x="1118" d="M61 1649l351 145h295l350 -145l-62 -283l-424 340l-448 -340z" />
<glyph unicode="_" horiz-adv-x="1255" d="M147 0h959v-236h-959v236z" />
<glyph unicode="`" horiz-adv-x="1228" d="M381 1821h264l203 -465l-465 203z" />
<glyph unicode="a" horiz-adv-x="1392" d="M147 229q0 272 330 273v-260h357v778h-351q0 -109 -139 -109q-51 0 -87 36t-36 91q0 207 447 207q156 0 272.5 -63.5t136.5 -202.5q8 -55 8 -197v-454l199 -197l-180 -184q-193 184 -270 291q-82 -147 -151 -214t-175 -67q-147 0 -254 65.5t-107 206.5z" />
<glyph unicode="b" horiz-adv-x="1603" d="M84 166l223 221l-2 1088h-149v174h424l-2 -652q6 8 16 22.5t45 49.5t70.5 61.5t90 49t105.5 22.5q242 0 368 -152.5t126 -449.5q0 -324 -114 -483.5t-359 -159.5q-59 0 -116.5 25.5t-97.5 62.5t-72 73t-46 62l-16 25l-271 -264zM578 207h536v741h-536v-741z" />
<glyph unicode="c" horiz-adv-x="1378" d="M205 600q0 301 148.5 474t398.5 173q72 0 142.5 -10t142 -33.5t115.5 -70t44 -109.5l-666 -2v-836h746q-2 -10 -9 -25.5t-43 -54t-87.5 -69.5t-153.5 -55.5t-231 -24.5t-224.5 30.5t-170 102.5t-113.5 199t-39 311z" />
<glyph unicode="d" horiz-adv-x="1603" d="M205 600q0 297 126 449.5t367 152.5q160 0 306 -176l22 -29v469h-162v183h432v-1262l224 -221l-224 -225l-270 264q-6 -10 -16.5 -26.5t-45 -59.5t-72.5 -76t-96.5 -59.5t-117.5 -26.5q-246 0 -359.5 159.5t-113.5 483.5zM489 207h537v741h-537v-741z" />
<glyph unicode="e" horiz-adv-x="1599" d="M205 604q0 293 143.5 468t403.5 175q49 0 89 -2t110.5 -16.5t124.5 -38t116.5 -71.5t104.5 -114.5t70 -171t28 -235.5v-127l-830 102l539 121l2 328h-576v-836h746q-2 -10 -9 -25.5t-43 -54t-87.5 -69.5t-153.5 -55.5t-231 -24.5q-279 0 -413 146.5t-134 500.5z" />
<glyph unicode="f" horiz-adv-x="1226" d="M123 0v180h143v647l-143 -45v244l143 -88v266q0 229 119 361q57 61 159.5 94t215.5 33q412 0 411 -215v-39h-639v-500l502 88v-244l-502 45v-647h144v-180h-553z" />
<glyph unicode="g" horiz-adv-x="1431" d="M76 133q0 59 18.5 106.5t45 74t59 45t58.5 24.5t46 6v-233h518q94 0 153.5 -8.5t115 -32t82 -74.5t26.5 -133q0 -131 -66.5 -176t-185.5 -45v204q-327 -1 -490 -1t-163 1q-92 2 -154.5 70t-62.5 172zM324 494v632h573v-632h-573zM920 1268q0 88 63.5 151.5t153.5 63.5 t153.5 -63.5t63.5 -151.5q0 -90 -63.5 -153.5t-153.5 -63.5t-153.5 63.5t-63.5 153.5z" />
<glyph unicode="h" horiz-adv-x="1538" d="M119 0v180h147v1293h-147v176h424v-815q63 106 163.5 174.5t213.5 68.5q164 0 268 -113.5t104 -281.5v-500l146 -2v-180h-418v831h-477v-831h-424z" />
<glyph unicode="i" horiz-adv-x="802" d="M133 0v180h135l-2 602h-133v119l404 139v-860h133v-180h-537zM133 1317v375h426v-375h-426z" />
<glyph unicode="j" horiz-adv-x="944" d="M-72 -88l482 -96v966h-134v119l402 139v-974q0 -184 -94.5 -303t-280.5 -119h-375v268zM276 1317v375h426v-375h-426z" />
<glyph unicode="k" horiz-adv-x="1787" d="M125 0v180h141v1293h-141v176h428v-1649h-428zM733 700l467 -522v-178h453v178l-647 527l301 329h147l-4 168h-410z" />
<glyph unicode="l" horiz-adv-x="819" d="M125 0v182h141v1291h-141v176h428v-1467h135v-182h-563z" />
<glyph unicode="m" horiz-adv-x="2355" d="M70 1059l219 217l280 -283v-993h-405v180h143v631zM569 993q92 121 180.5 187.5t211.5 66.5q145 0 244.5 -72.5t125.5 -181.5v-993h-270v993h-492zM1331 993q61 109 160.5 181.5t222.5 72.5q164 0 269.5 -113.5t105.5 -279.5v-674h143v-180h-415v993h-486z" />
<glyph unicode="n" horiz-adv-x="1599" d="M66 1055l223 221l278 -277q117 131 207 187q98 61 187 61q164 0 268 -113.5t104 -279.5v-674h146v-180h-418l2 989h-496v-989h-403v180h143v631z" />
<glyph unicode="o" horiz-adv-x="1404" d="M307 207v782h791v-782h-791z" />
<glyph unicode="p" horiz-adv-x="1579" d="M84 1032l225 221l269 -262v-614h536v614h-536q6 10 15 27.5t43 61.5t69.5 77t93 60.5t116.5 27.5q238 0 361 -131t123 -420q0 -246 -114 -395t-370 -149q-158 0 -313 190l-24 33v-512h139v-174h-410v1144z" />
<glyph unicode="q" horiz-adv-x="1579" d="M180 694q0 289 123 420t361 131q172 0 307 -205l30 -49h-536v-614h536v614l271 262l223 -221l-223 -201v-970h135v-174h-406v686q-6 -8 -17 -23.5t-47 -54.5t-74 -67.5t-93 -53t-106 -24.5q-484 -1 -484 544z" />
<glyph unicode="r" horiz-adv-x="1232" d="M117 1106l264 108l111 -192q121 76 178 117q72 55 130 80.5t136 25.5q86 0 142.5 -56t56.5 -145q0 -49 -13.5 -83.5t-41 -50t-51.5 -22.5q-15 -5 -37 -5q-13 0 -27 2q-41 4 -58.5 7t-54.5 11l-274 55l2 -958h-418v180h145v631z" />
<glyph unicode="s" horiz-adv-x="1290" d="M186 -43v246l652 -72v361h-336q-12 0 -34 3t-75 23.5t-93 56t-73.5 113.5t-33.5 182v375h878v-237l-645 49v-332h354q41 0 91.5 -16.5t107.5 -53.5t95 -115.5t38 -187.5q0 -111 -34 -192.5t-81 -118.5t-94 -58.5t-80 -23.5l-35 -2h-602z" />
<glyph unicode="t" horiz-adv-x="1294" d="M78 842l311 809h178v-602l447 79v-286l-449 61v-655h561q0 -12 -1 -31.5t-20.5 -70t-53 -89.5t-110.5 -70.5t-181 -31.5q-248 0 -371 141.5t-123 388.5v418z" />
<glyph unicode="u" horiz-adv-x="1597" d="M121 1020v180h418l-2 -903h481v903h272v-829l199 -201l-219 -217l-242 285q-6 -12 -18.5 -31t-51 -68t-80.5 -86t-107.5 -67.5t-131.5 -30.5q-164 0 -268.5 113.5t-104.5 279.5v672h-145z" />
<glyph unicode="v" horiz-adv-x="1556" d="M121 1022v180h418l-2 -907h481v907h416v-180h-144v-547l-385 -520h-254l-385 520v547h-145z" />
<glyph unicode="w" horiz-adv-x="2385" d="M121 1022v180h418l-2 -907h481q0 152 -1 447.5t-1 459.5h352v-907h477v907h420v-180h-145v-567l-385 -500h-256l-281 500l-293 -500h-254l-385 500v567h-145z" />
<glyph unicode="x" horiz-adv-x="1660" d="M174 0v174l518 426l-518 428v174h418l-2 -448h481v448h416v-174l-518 -426l518 -428v-174h-416v446h-479v-446h-418z" />
<glyph unicode="y" horiz-adv-x="1660" d="M133 1022v180h418l-2 -672h561v672h418v-180h-144l-112 -864q-14 -119 -58.5 -211t-99.5 -148.5t-123.5 -92.5t-128 -49t-117.5 -13h-307v223h609l8 567l-260 -196l-516 415v369h-146z" />
<glyph unicode="z" horiz-adv-x="1538" d="M143 0v360l901 705l-901 -98v235h1018v-321l-950 -775l956 189v-295h-1024z" />
<glyph unicode="{" d="M133 481v346l217 -47q6 141 31 263t76 236t124.5 193.5t185.5 128t251 48.5v-234h-344v-627l-316 -135l316 -157v-498h344v-242q-154 0 -278 63.5t-202.5 173t-124.5 245t-59 292.5z" />
<glyph unicode="|" horiz-adv-x="528" d="M145 -356v2005h236v-2005h-236z" />
<glyph unicode="}" d="M133 -2h344v498l316 157l-316 135v627h-344v234q141 0 253 -48.5t185.5 -128t123.5 -194.5t75 -235.5t31 -262.5l217 47v-346l-219 49q-14 -158 -60.5 -293t-125 -244.5t-202.5 -173t-278 -63.5v242z" />
<glyph unicode="~" horiz-adv-x="1314" d="M168 1323q-45 125 10 246t180 166q125 47 246 -8.5t166 -180.5l377 197q47 -125 -10.5 -246t-182.5 -166q-125 -47 -244.5 10.5t-164.5 182.5z" />
<glyph unicode="&#xa1;" horiz-adv-x="706" d="M147 -43l185 999h45l182 -999h-412zM147 1245v404h412v-404h-412z" />
<glyph unicode="&#xa2;" horiz-adv-x="1351" d="M139 600q0 266 118 434t323 203l-52 313h320l-55 -309q141 -14 239 -66.5t98 -150.5l-665 -2v-836h745q-2 -8 -8 -21t-34.5 -47t-69.5 -62.5t-122 -56.5t-181 -36l53 -305h-320l52 305q-213 25 -327 172.5t-114 464.5z" />
<glyph unicode="&#xa3;" horiz-adv-x="1601" d="M147 0v176h207v531l-207 -58v291l211 -59q8 197 47 333t126 237t237 149.5t369 48.5h196v-371l-655 178v-641l452 125v-291l-452 125v-229q0 -33 -4 -85t-37 -163t-92 -164l909 107v-240h-1307z" />
<glyph unicode="&#xa4;" horiz-adv-x="1312" d="M90 51v160l250 190q-123 117 -123 316q0 236 127 366l-254 195v160h186l119 -314q109 76 262 76q156 0 263 -74l118 312h187v-160l-254 -195q127 -131 127 -366q0 -199 -123 -316l250 -190v-160h-187l-116 307q-113 -74 -264.5 -73.5t-264.5 73.5l-117 -307h-186z M438 477h439v535h-439v-535z" />
<glyph unicode="&#xa5;" horiz-adv-x="1779" d="M147 422v268l617 -92l-473 502v377h-144v172h412l-2 -775h668v775h407v-172h-141v-377l-485 -502l626 92v-268l-626 63l26 -307h139v-178h-546v178h129l26 307z" />
<glyph unicode="&#xa6;" horiz-adv-x="528" d="M145 -356v845h236v-845h-236zM145 825v867h236v-867h-236z" />
<glyph unicode="&#xa7;" horiz-adv-x="1533" d="M145 522q0 76 29 132.5t71 82t83 40t69 14.5l29 2l-4 -422l344 71q74 16 133 23.5t137 8.5t135.5 -21.5t108.5 -64.5t78.5 -122t27.5 -192q0 -70 -12 -128.5t-34.5 -100.5t-53.5 -75.5t-68.5 -54t-79.5 -36t-87 -21.5t-91.5 -11t-91.5 -3t-88 0h-41h-540v313l909 -145 l-2 458l-342 -73q-272 -55 -445.5 27.5t-173.5 297.5zM145 1264q0 70 12.5 128t35 100t53 76t68.5 54t80 35.5t87 22t91 11.5t91.5 3t88.5 0h41h585v-314l-954 146l2 -459l342 74q272 55 445 -28t173 -298q0 -76 -28.5 -132t-70.5 -82t-83 -40t-69 -16h-29l4 422l-344 -72 q-74 -16 -133.5 -23.5t-137 -8.5t-135 21.5t-108.5 64.5t-79 122t-28 193z" />
<glyph unicode="&#xa8;" horiz-adv-x="1228" d="M53 1442v327h330v-327h-330zM842 1442v327h332v-327h-332z" />
<glyph unicode="&#xa9;" horiz-adv-x="1871" d="M143 778q0 401 204 636t587 235q387 0 591 -234.5t204 -636.5q0 -358 -219.5 -568t-575.5 -210t-573.5 211t-217.5 567zM420 190h1028v1276h-1028v-1276zM551 793q0 254 91 373.5t341 119.5h285v-221l-496 102v-651l510 53q-23 -117 -113 -166t-186 -49 q-211 0 -321.5 114t-110.5 325z" />
<glyph unicode="&#xaa;" horiz-adv-x="1114" d="M106 641q0 225 289 225v-207h250v592h-244q-8 -84 -127 -84q-45 0 -78.5 32t-33.5 79q0 172 368 172q80 0 149 -18.5t123 -69.5t66 -129q6 -43 6 -156v-354l160 -158l-149 -153l-25 -2q-139 125 -198 211q-61 -109 -115.5 -157t-143.5 -48q-121 0 -209 54t-88 171z" />
<glyph unicode="&#xab;" horiz-adv-x="1937" d="M193 467v297l368 471l283 -182l-619 -437l619 -436l-283 -184zM1094 467v297l368 471l281 -182l-617 -437l617 -436l-281 -184z" />
<glyph unicode="&#xac;" horiz-adv-x="1296" d="M143 760v129h1012v-570h-154v441h-858z" />
<glyph unicode="&#xad;" horiz-adv-x="1140" d="M70 760v129h1013v-127z" />
<glyph unicode="&#xae;" horiz-adv-x="1871" d="M143 778q0 401 203 636t588 235q387 0 591 -234.5t204 -636.5q0 -358 -219.5 -568t-575.5 -210t-573.5 211t-217.5 567zM420 190h1028v1276h-1028v-1276zM496 371v110h104v672h-104v125h424q72 0 122 -4t107 -20.5t93 -46t59.5 -85t23.5 -131.5q0 -141 -87 -201.5 t-214 -46.5l260 -262h80v-110h-268l-295 483v-483h-305zM801 868h325v285h-325v-285z" />
<glyph unicode="&#xaf;" horiz-adv-x="1228" d="M135 1456v236h959v-236h-959z" />
<glyph unicode="&#xb0;" horiz-adv-x="1169" d="M143 1165q0 221 114 352.5t327 131.5q215 0 327.5 -131.5t112.5 -352.5q0 -199 -122 -315.5t-318.5 -116.5t-318.5 116.5t-122 315.5zM365 926h438v534h-438v-534z" />
<glyph unicode="&#xb1;" horiz-adv-x="1533" d="M205 668v315l520 -115l-117 521h316l-113 -521l518 115v-315l-518 116l113 -520h-316l117 520zM281 -115v236h958v-236h-958z" />
<glyph unicode="&#xb2;" horiz-adv-x="1538" d="M236 1448v248h561q78 0 139 -6.5t130 -30t113 -62t73.5 -109.5t29.5 -167q0 -160 -106.5 -276.5t-225.5 -116.5q-86 0 -204.5 11t-194.5 24l-76 10v-357l828 111v-276h-1061v350q0 154 108.5 265.5t259.5 111.5l398 -37v381z" />
<glyph unicode="&#xb3;" horiz-adv-x="1654" d="M236 451v278l903 -111v361l-551 -64v211l399 -4q133 -2 221 -27.5t133 -73.5t61.5 -102.5t16.5 -127.5q0 -172 -87 -256t-302 -84h-794zM297 1372v279h477q451 0 545 -215q29 -63 18 -117l-276 -135v250z" />
<glyph unicode="&#xb4;" horiz-adv-x="1228" d="M381 1356l203 465h264l-2 -262z" />
<glyph unicode="&#xb5;" horiz-adv-x="1480" d="M121 1020v180h418l-2 -903h481v903h272v-829l199 -201l-219 -217l-242 285q-6 -12 -18.5 -31t-51 -68t-80.5 -86t-107.5 -67.5t-131.5 -30.5q-141 0 -240 86l168 -397l-293 -4l-8 686v694h-145z" />
<glyph unicode="&#xb6;" horiz-adv-x="1933" d="M147 1032q0 162 54.5 274.5t158 172t225.5 84t283 24.5h918v-172h-201v-1593h201v-178h-481v1712h-252l59 -56l-2 -573q-47 -63 -106.5 -109.5t-111.5 -68t-97 -33.5t-72 -12l-27 -2q-102 0 -190 23.5t-173 78.5t-135.5 164.5t-50.5 263.5zM711 -360l399 718v-716z" />
<glyph unicode="&#xb7;" horiz-adv-x="874" d="M184 360v506h504v-506h-504z" />
<glyph unicode="&#xb8;" horiz-adv-x="1228" d="M444 -356l340 405v-405h-340z" />
<glyph unicode="&#xb9;" horiz-adv-x="1331" d="M215 1231v325l623 140v-1065h319v-180h-905v180h319v882z" />
<glyph unicode="&#xba;" horiz-adv-x="935" d="M102 901q0 252 120 399.5t345 147.5q227 0 347 -147.5t120 -399.5q0 -223 -129 -355t-338 -132t-337 132t-128 355zM358 614h418v635h-418v-635z" />
<glyph unicode="&#xbb;" horiz-adv-x="1937" d="M193 180l616 436l-616 437l280 182l371 -471v-297l-371 -471zM1094 180l616 436l-616 437l280 182l369 -471v-297l-369 -471z" />
<glyph unicode="&#xbc;" horiz-adv-x="3481" d="M242 1231v325l622 140v-1065h320v-180h-905v180h319v882zM690 -96l772 751l422 1035h289v-258l-688 -777l-504 -1011h-291v260zM2046 315h577l-120 -309h393l-123 309h465v271l-1135 -221l664 886h-336l-385 -622v-314z" />
<glyph unicode="&#xbd;" horiz-adv-x="3481" d="M231 1231v325l623 140v-1065h320v-180h-906v180h320v882zM680 -96l772 751l422 1035h289v-258l-688 -777l-504 -1011h-291v260zM2181 1004l772 73v-381l-397 37q-152 0 -260.5 -111.5t-108.5 -265.5v-350h1061v277l-827 -111v356q281 -45 475 -45q119 0 225.5 117 t106.5 277q0 96 -30 166.5t-74 109.5t-112.5 62.5t-130 29.5t-139.5 6h-561v-247z" />
<glyph unicode="&#xbe;" horiz-adv-x="3481" d="M94 451h795q215 0 302 83.5t87 256.5q0 74 -16.5 128t-61.5 102t-133 73.5t-221 27.5l-400 4v-211l551 64v-361l-903 111v-278zM156 1372l764 62v-250l276 135q2 6 2 18.5t-5 47t-21.5 65.5t-55.5 70t-97 66.5t-158.5 46t-227.5 18.5h-477v-279zM874 -96l773 751 l421 1035h289v-258l-688 -777l-504 -1011h-291v260zM2195 315h578l-121 -309h393l-123 309h465v271l-1134 -221l663 886h-336l-385 -622v-314z" />
<glyph unicode="&#xbf;" horiz-adv-x="1361" d="M158 412q0 -115 29.5 -200t74.5 -133t112.5 -77t130 -37t140.5 -8h559v248l-770 -74v485h211q47 0 96.5 7.5t120 31t113.5 81t43 143.5q0 190 -238 190v-244q-94 59 -291 60q-125 0 -228 -127t-103 -346zM641 1245v404h403v-404h-403z" />
<glyph unicode="&#xc0;" horiz-adv-x="1843" d="M143 0v180h146v137l506 1166h256l508 -1166v-137h141v-180h-416v635h-725l2 -635h-418zM551 2050h264l203 -465l-465 203z" />
<glyph unicode="&#xc1;" horiz-adv-x="1843" d="M143 0v180h146v137l506 1166h256l508 -1166v-137h141v-180h-416v635h-725l2 -635h-418zM821 1585l203 465h264l-2 -262z" />
<glyph unicode="&#xc2;" horiz-adv-x="1843" d="M143 0v180h146v137l506 1166h256l508 -1166v-137h141v-180h-416v635h-725l2 -635h-418zM414 1882l350 143h147l-436 -428zM911 2025h148l350 -143l-61 -285z" />
<glyph unicode="&#xc3;" horiz-adv-x="1843" d="M143 0v180h146v137l506 1166h256l508 -1166v-137h141v-180h-416v635h-725l2 -635h-418zM438 1552q-45 125 3 231.5t173 151.5q123 49 243 2t163 -170l397 205q45 -125 2 -222t-170 -153q-121 -55 -244.5 -6t-168.5 174z" />
<glyph unicode="&#xc4;" horiz-adv-x="1843" d="M143 0v180h146v137l506 1166h256l508 -1166v-137h141v-180h-416v635h-725l2 -635h-418zM362 1671v328h330v-328h-330zM1151 1671v328h332v-328h-332z" />
<glyph unicode="&#xc5;" horiz-adv-x="1843" d="M143 0v180h146v137l434 1004q-119 39 -187.5 122t-68.5 187q0 158 115.5 263.5t324.5 105.5q211 0 326 -104.5t115 -264.5q0 -98 -61.5 -178t-170.5 -123l443 -1012v-137h141v-180h-416v635h-725l2 -635h-418zM688 1487h438v323h-438v-323z" />
<glyph unicode="&#xc6;" horiz-adv-x="2324" d="M147 0v180h146v207l788 1262h1096v-295l-735 121v-1293l735 121v-303h-1020v705h-594v-705h-416zM1571 858l534 146v-293z" />
<glyph unicode="&#xc7;" horiz-adv-x="1671" d="M170 883q0 176 34 306t118 238.5t244.5 165t396.5 56.5h503v-316l-970 123v-1065l991 60q-14 -80 -71.5 -141.5t-135.5 -95.5t-159 -50.5t-158 -16.5q-190 0 -345 66t-250.5 172.5t-146.5 235.5t-51 262zM545 -356h340v405z" />
<glyph unicode="&#xc8;" horiz-adv-x="1724" d="M225 0v180h203v1120h-203v175l1233 8v-303l-745 120v-1120l745 123v-303h-1233zM623 2050h264l203 -465l-465 203zM780 768l535 145v-292z" />
<glyph unicode="&#xc9;" horiz-adv-x="1724" d="M225 0v180h203v1120h-203v175l1233 8v-303l-745 120v-1120l745 123v-303h-1233zM707 1585l202 465h265l-3 -262zM780 768l535 -147v292z" />
<glyph unicode="&#xca;" horiz-adv-x="1724" d="M225 0v180h203v1120h-203v175l1233 8v-303l-745 120v-1120l745 123v-303h-1233zM416 1882l350 143h147l-436 -428zM780 768l535 -147v292zM913 2025h148l350 -143l-61 -285z" />
<glyph unicode="&#xcb;" horiz-adv-x="1724" d="M225 0v180h203v1120h-203v175l1233 8v-303l-745 120v-1120l745 123v-303h-1233zM276 1671v328h330v-328h-330zM780 768l535 -147v292zM1065 1671v328h332v-328h-332z" />
<glyph unicode="&#xcc;" d="M225 0v180h209v1129h-209v174h701v-174h-207v-1129h207v-180h-701zM231 2050h265l202 -465l-465 203z" />
<glyph unicode="&#xcd;" d="M225 0h701v180h-207v1129h207v174h-701v-174h209v-1129h-209v-180zM449 1585l202 465h264l-2 -262z" />
<glyph unicode="&#xce;" d="M76 1882l350 143h147l-436 -428zM225 0h701v180h-207v1129h207v174h-701v-174h209v-1129h-209v-180zM573 2025h148l350 -143l-61 -285z" />
<glyph unicode="&#xcf;" d="M16 1671v328h330v-328h-330zM225 0h701v180h-207v1129h207v174h-701v-174h209v-1129h-209v-180zM805 1671v328h332v-328h-332z" />
<glyph unicode="&#xd0;" horiz-adv-x="1855" d="M16 662l400 167l-400 168v-335zM279 0v180h202v1295h-202v174h768q2 -4 27.5 1t72.5 -4.5t105.5 -16.5t125 -37.5t131 -67.5t125 -106.5t105.5 -153.5t72.5 -209t27.5 -275q0 -164 -44 -295t-113.5 -210.5t-153.5 -137t-168 -83t-153.5 -39t-112.5 -15.5h-45h-770z M766 242h745v1173h-745v-1173zM825 829l398 -167v335z" />
<glyph unicode="&#xd1;" horiz-adv-x="2150" d="M225 0v180h144v1129h-144v174h361l4 -10l61 -1473h-426zM590 1473v10h266l723 -1483h-270zM596 1552q-45 125 3 231.5t173 151.5q123 49 243 2t163 -170l397 205q45 -125 2 -222t-170 -153q-121 -55 -245 -6t-169 174zM1520 1483h426v-174h-142v-1309h-225z" />
<glyph unicode="&#xd2;" horiz-adv-x="2062" d="M184 694q0 381 218.5 606.5t625.5 225.5q412 0 631 -224.5t219 -607.5q0 -342 -234.5 -542.5t-615.5 -200.5q-379 0 -611.5 201.5t-232.5 541.5zM522 182h1014v1129h-1014v-1129zM750 2050h264l203 -465l-465 203z" />
<glyph unicode="&#xd3;" horiz-adv-x="2062" d="M184 694q0 381 218.5 606.5t625.5 225.5q412 0 631 -224.5t219 -607.5q0 -342 -234.5 -542.5t-615.5 -200.5q-379 0 -611.5 201.5t-232.5 541.5zM522 182h1014v1129h-1014v-1129zM877 1585l202 465h264l-2 -262z" />
<glyph unicode="&#xd4;" horiz-adv-x="2062" d="M184 694q0 381 218.5 606.5t625.5 225.5q412 0 631 -224.5t219 -607.5q0 -342 -234.5 -542.5t-615.5 -200.5q-379 0 -611.5 201.5t-232.5 541.5zM522 182h1014v1129h-1014v-1129zM541 1882l350 143h147l-436 -428zM1038 2025h148l350 -143l-61 -285z" />
<glyph unicode="&#xd5;" horiz-adv-x="2062" d="M184 694q0 381 218.5 606.5t625.5 225.5q412 0 631 -224.5t219 -607.5q0 -342 -234.5 -542.5t-615.5 -200.5q-379 0 -611.5 201.5t-232.5 541.5zM522 182h1014v1129h-1014v-1129zM578 1552q-45 125 3 231.5t173 151.5q123 49 242.5 2t162.5 -170l397 205 q45 -125 2.5 -222t-169.5 -153q-121 -55 -245 -6t-169 174z" />
<glyph unicode="&#xd6;" horiz-adv-x="2062" d="M184 694q0 381 218.5 606.5t625.5 225.5q412 0 631 -224.5t219 -607.5q0 -342 -234.5 -542.5t-615.5 -200.5q-379 0 -611.5 201.5t-232.5 541.5zM465 1671v328h330v-328h-330zM522 182h1014v1129h-1014v-1129zM1253 1671v328h332v-328h-332z" />
<glyph unicode="&#xd7;" horiz-adv-x="1675" d="M150 -43v276l616 402l-616 432v262h276l414 -629l413 629h273v-262l-613 -432l613 -402v-276h-264l-422 600l-420 -600h-270z" />
<glyph unicode="&#xd8;" horiz-adv-x="1955" d="M186 780q0 397 204 633t587 236q250 0 426 -101l137 195h189l-3 -158l-149 -184q195 -229 195 -621q0 -356 -219.5 -568t-575.5 -212q-256 0 -447 115l-243 -301l-72 45l225 321q-254 215 -254 600zM512 281l799 1134h-799v-1134zM633 242h809v995z" />
<glyph unicode="&#xd9;" horiz-adv-x="2217" d="M195 1309v174h450l-2 -1284h932v1284h448v-174h-122v-572q0 -356 -219.5 -568t-573.5 -212t-572.5 212t-218.5 568v572h-122zM797 2050h264l203 -465l-465 203z" />
<glyph unicode="&#xda;" horiz-adv-x="2217" d="M195 1309v174h450l-2 -1284h932v1284h448v-174h-122v-572q0 -356 -219.5 -568t-573.5 -212t-572.5 212t-218.5 568v572h-122zM874 1585l203 465h264l-2 -262z" />
<glyph unicode="&#xdb;" horiz-adv-x="2217" d="M195 1309v174h450l-2 -1284h932v1284h448v-174h-122v-572q0 -356 -219.5 -568t-573.5 -212t-572.5 212t-218.5 568v572h-122zM631 1882l350 143h147l-436 -428zM1128 2025h148l350 -143l-61 -285z" />
<glyph unicode="&#xdc;" horiz-adv-x="2217" d="M195 1309v174h450l-2 -1284h932v1284h448v-174h-122v-572q0 -356 -219.5 -568t-573.5 -212t-572.5 212t-218.5 568v572h-122zM553 1671v328h330v-328h-330zM1341 1671v328h332v-328h-332z" />
<glyph unicode="&#xdd;" horiz-adv-x="1875" d="M184 1300v175h418l-2 -734h676v734h416v-175h-142v-331l-503 -496l36 -293h142v-180h-555v180h131l35 281q-39 25 -506 508v331h-146zM739 1585l203 465h264l-2 -262z" />
<glyph unicode="&#xde;" horiz-adv-x="1835" d="M143 0v180h203v1295h-203v174h488v-1649h-488zM651 1147q6 10 16.5 26.5t48.5 58.5t84 74.5t122.5 59.5t162.5 27q565 0 566 -555q0 -156 -50.5 -266.5t-136.5 -167t-176 -80t-192 -23.5q-209 0 -385 199l-37 43h696v604h-719z" />
<glyph unicode="&#xdf;" horiz-adv-x="1748" d="M68 -180h198v1511q0 100 55.5 175t134.5 109t158.5 53.5t135.5 21.5l55 2q168 0 287.5 -34t182 -92.5t89.5 -122t27 -136.5q0 -76 -28 -131.5t-74 -83t-93 -39t-100 -11.5v437h-547v-1835h-481v176zM743 -86v213h584v623l-584 -78v221h383q481 -4 482 -449 q0 -283 -183.5 -406.5t-590.5 -123.5h-91z" />
<glyph unicode="&#xe0;" horiz-adv-x="1392" d="M147 229q0 272 330 273v-260h357v778h-351q0 -109 -139 -109q-51 0 -87 36t-36 91q0 207 447 207q156 0 272.5 -63.5t136.5 -202.5q8 -55 8 -197v-454l199 -197l-180 -184q-193 184 -270 291q-82 -147 -151 -214t-175 -67q-147 0 -254 65.5t-107 206.5zM463 1821h264 l203 -465l-465 203z" />
<glyph unicode="&#xe1;" horiz-adv-x="1392" d="M147 229q0 272 330 273v-260h357v778h-351q0 -109 -139 -109q-51 0 -87 36t-36 91q0 207 447 207q156 0 272.5 -63.5t136.5 -202.5q8 -55 8 -197v-454l199 -197l-180 -184q-193 184 -270 291q-82 -147 -151 -214t-175 -67q-147 0 -254 65.5t-107 206.5zM463 1356l203 465 h264l-2 -262z" />
<glyph unicode="&#xe2;" horiz-adv-x="1392" d="M147 229q0 272 330 273v-260h357v778h-351q0 -109 -139 -109q-51 0 -87 36t-36 91q0 207 447 207q156 0 272.5 -63.5t136.5 -202.5q8 -55 8 -197v-454l199 -197l-180 -184q-193 184 -270 291q-82 -147 -151 -214t-175 -67q-147 0 -254 65.5t-107 206.5zM199 1597l350 144 h147l-436 -428zM696 1741h148l350 -144l-61 -284z" />
<glyph unicode="&#xe3;" horiz-adv-x="1392" d="M147 229q0 272 330 273v-260h357v778h-351q0 -109 -139 -109q-51 0 -87 36t-36 91q0 207 447 207q156 0 272.5 -63.5t136.5 -202.5q8 -55 8 -197v-454l199 -197l-180 -184q-193 184 -270 291q-82 -147 -151 -214t-175 -67q-147 0 -254 65.5t-107 206.5zM207 1323 q-45 125 3 231.5t173 151.5q123 49 242.5 2t162.5 -170l398 205q45 -125 2 -222.5t-170 -152.5q-121 -55 -245 -6t-169 174z" />
<glyph unicode="&#xe4;" horiz-adv-x="1392" d="M135 1442v327h330v-327h-330zM147 229q0 272 330 273v-260h357v778h-351q0 -109 -139 -109q-51 0 -87 36t-36 91q0 207 447 207q156 0 272.5 -63.5t136.5 -202.5q8 -55 8 -197v-454l199 -197l-180 -184q-193 184 -270 291q-82 -147 -151 -214t-175 -67q-147 0 -254 65.5 t-107 206.5zM924 1442v327h331v-327h-331z" />
<glyph unicode="&#xe5;" horiz-adv-x="1392" d="M147 229q0 272 330 273v-260h357v778h-351q0 -109 -139 -109q-51 0 -87 36t-36 91q0 125 162 176q-164 98 -164 269q0 158 116 263t324 105q211 0 326 -104.5t115 -263.5q0 -88 -51.5 -163t-141.5 -122q147 -68 170 -219q8 -55 8 -197v-454l199 -197l-180 -184 q-193 184 -270 291q-82 -147 -151 -214t-175 -67q-147 0 -254 65.5t-107 206.5zM440 1339h439v324h-439v-324z" />
<glyph unicode="&#xe6;" horiz-adv-x="2095" d="M145 227q0 272 330 273v-260h356v782h-350q0 -109 -139 -109q-51 0 -87 36t-36 91q0 96 99.5 150.5t283.5 54.5q74 0 137.5 -22.5t102.5 -55t66.5 -66.5t37.5 -57l12 -22q6 8 16.5 23.5t51.5 54.5t89 67.5t129 53t171 24.5q272 0 402.5 -176t130.5 -471v-127l-828 102 l537 121v328h-574q2 -223 0 -838h746q-2 -10 -9.5 -25.5t-42 -54t-86 -69.5t-153.5 -55.5t-231 -24.5q-293 0 -400 266h-33q-143 -266 -368 -266q-147 0 -254 65.5t-107 206.5z" />
<glyph unicode="&#xe7;" horiz-adv-x="1368" d="M147 690q2 115 39 209t98.5 156.5t141.5 106.5t164 63.5t170 19.5q160 2 270.5 -59.5t110.5 -161.5l-666 -2v-660h746q-18 -70 -154.5 -140t-318.5 -72q-84 -2 -165 13t-163 54t-141.5 98.5t-96.5 156.5t-35 218zM522 -305h340v405z" />
<glyph unicode="&#xe8;" horiz-adv-x="1599" d="M205 604q0 293 143.5 468t403.5 175q49 0 89 -2t110.5 -16.5t124.5 -38t116.5 -71.5t104.5 -114.5t70 -171t28 -235.5v-127l-830 102l539 121l2 328h-576v-836h746q-2 -10 -9 -25.5t-43 -54t-87.5 -69.5t-153.5 -55.5t-231 -24.5q-279 0 -413 146.5t-134 500.5zM565 1821 h264l203 -465l-465 203z" />
<glyph unicode="&#xe9;" horiz-adv-x="1599" d="M205 604q0 293 143.5 468t403.5 175q49 0 89 -2t110.5 -16.5t124.5 -38t116.5 -71.5t104.5 -114.5t70 -171t28 -235.5v-127l-830 102l539 121l2 328h-576v-836h746q-2 -10 -9 -25.5t-43 -54t-87.5 -69.5t-153.5 -55.5t-231 -24.5q-279 0 -413 146.5t-134 500.5zM565 1356 l203 465h264l-2 -262z" />
<glyph unicode="&#xea;" horiz-adv-x="1599" d="M205 604q0 293 143.5 468t403.5 175q49 0 89 -2t110.5 -16.5t124.5 -38t116.5 -71.5t104.5 -114.5t70 -171t28 -235.5v-127l-830 102l539 121l2 328h-576v-836h746q-2 -10 -9 -25.5t-43 -54t-87.5 -69.5t-153.5 -55.5t-231 -24.5q-279 0 -413 146.5t-134 500.5zM301 1597 l350 144h148l-437 -428zM799 1741h147l350 -144l-61 -284z" />
<glyph unicode="&#xeb;" horiz-adv-x="1599" d="M205 604q0 293 143.5 468t403.5 175q49 0 89 -2t110.5 -16.5t124.5 -38t116.5 -71.5t104.5 -114.5t70 -171t28 -235.5v-127l-830 102l539 121l2 328h-576v-836h746q-2 -10 -9 -25.5t-43 -54t-87.5 -69.5t-153.5 -55.5t-231 -24.5q-279 0 -413 146.5t-134 500.5zM240 1442 v327h329v-327h-329zM1028 1442v327h332v-327h-332z" />
<glyph unicode="&#xec;" horiz-adv-x="802" d="M133 0v180h135l-2 602h-133v119l404 139v-860h133v-180h-537zM168 1821h264l203 -465l-465 203z" />
<glyph unicode="&#xed;" horiz-adv-x="802" d="M133 0v180h135l-2 602h-133v119l404 139v-860h133v-180h-537zM168 1356l203 465h264l-2 -262z" />
<glyph unicode="&#xee;" horiz-adv-x="802" d="M-96 1597l350 144h147l-436 -428zM133 0v180h135l-2 602h-133v119l404 139v-860h133v-180h-537zM401 1741h148l350 -144l-61 -284z" />
<glyph unicode="&#xef;" horiz-adv-x="802" d="M-158 1442v327h330v-327h-330zM133 0v180h135l-2 602h-133v119l404 139v-860h133v-180h-537zM631 1442v327h332v-327h-332z" />
<glyph unicode="&#xf0;" horiz-adv-x="1689" d="M59 467q0 168 100.5 270.5t211.5 102.5q244 0 313 -168q14 -33 16 -58h-364l2 -424h756v1147h-711v154q10 6 29.5 16.5t85 33t134 33.5t172 8t206.5 -30q160 -41 281.5 -268t121.5 -559q0 -164 -38 -294t-99.5 -209t-134 -135t-146 -79.5t-135 -37t-98.5 -13.5h-39 q-311 0 -487.5 138.5t-176.5 371.5zM651 1147l406 149l-176 -393zM1223 1444l176 395l229 -246z" />
<glyph unicode="&#xf1;" horiz-adv-x="1599" d="M66 1055l223 221l278 -277q117 131 207 187q98 61 187 61q164 0 268 -113.5t104 -279.5v-674h146v-180h-418l2 989h-496v-989h-403v180h143v631zM309 1323q-45 125 3 231.5t173 151.5q123 49 243 2t163 -170l397 205q45 -125 2 -222.5t-170 -152.5q-121 -55 -244.5 -6 t-168.5 174z" />
<glyph unicode="&#xf2;" horiz-adv-x="1404" d="M307 207v782h791v-782h-791zM469 1821h264l203 -465l-465 203z" />
<glyph unicode="&#xf3;" horiz-adv-x="1404" d="M307 207v782h791v-782h-791zM524 1356l203 465h264l-2 -262z" />
<glyph unicode="&#xf4;" horiz-adv-x="1404" d="M205 1597l350 144h147l-436 -428zM307 207v782h791v-782h-791zM702 1741h148l350 -144l-61 -284z" />
<glyph unicode="&#xf5;" horiz-adv-x="1404" d="M213 1323q-45 125 3 231.5t173 151.5q123 49 243 2t163 -170l397 205q45 -125 2 -222.5t-170 -152.5q-121 -55 -245 -6t-169 174zM307 207v782h791v-782h-791z" />
<glyph unicode="&#xf6;" horiz-adv-x="1404" d="M141 1442v327h330v-327h-330zM307 207v782h791v-782h-791zM930 1442v327h332v-327h-332z" />
<glyph unicode="&#xf7;" horiz-adv-x="1368" d="M205 653v236h958v-236h-958zM481 0v412h412v-412h-412zM481 1071v414h412v-414h-412z" />
<glyph unicode="&#xf8;" horiz-adv-x="1138" d="M-47 -37l328 197l-142 -355h-186v158zM213 207v782h791v-782h-791zM858 1024l141 356h187v-159z" />
<glyph unicode="&#xf9;" horiz-adv-x="1597" d="M121 1020v180h418l-2 -903h481v903h272v-829l199 -201l-219 -217l-242 285q-6 -12 -18.5 -31t-51 -68t-80.5 -86t-107.5 -67.5t-131.5 -30.5q-164 0 -268.5 113.5t-104.5 279.5v672h-145zM565 1821h264l203 -465l-465 203z" />
<glyph unicode="&#xfa;" horiz-adv-x="1597" d="M121 1020v180h418l-2 -903h481v903h272v-829l199 -201l-219 -217l-242 285q-6 -12 -18.5 -31t-51 -68t-80.5 -86t-107.5 -67.5t-131.5 -30.5q-164 0 -268.5 113.5t-104.5 279.5v672h-145zM565 1356l203 465h264l-2 -262z" />
<glyph unicode="&#xfb;" horiz-adv-x="1597" d="M121 1020v180h418l-2 -903h481v903h272v-829l199 -201l-219 -217l-242 285q-6 -12 -18.5 -31t-51 -68t-80.5 -86t-107.5 -67.5t-131.5 -30.5q-164 0 -268.5 113.5t-104.5 279.5v672h-145zM301 1597l350 144h148l-437 -428zM799 1741h147l350 -144l-61 -284z" />
<glyph unicode="&#xfc;" horiz-adv-x="1597" d="M121 1020v180h418l-2 -903h481v903h272v-829l199 -201l-219 -217l-242 285q-6 -12 -18.5 -31t-51 -68t-80.5 -86t-107.5 -67.5t-131.5 -30.5q-164 0 -268.5 113.5t-104.5 279.5v672h-145zM238 1442v327h329v-327h-329zM1026 1442v327h332v-327h-332z" />
<glyph unicode="&#xfd;" horiz-adv-x="1660" d="M133 1022v180h418l-2 -672h561v672h418v-180h-144l-112 -864q-14 -119 -58.5 -211t-99.5 -148.5t-123.5 -92.5t-128 -49t-117.5 -13h-307v223h609l8 567l-260 -196l-516 415v369h-146zM596 1356l203 465h264l-2 -262z" />
<glyph unicode="&#xfe;" horiz-adv-x="1601" d="M186 -143h140v1613h-140v177l410 2v-658q6 10 15.5 27.5t43 61.5t69.5 77t93 60.5t117 27.5q238 0 360.5 -131t122.5 -420q0 -266 -116.5 -383.5t-366.5 -117.5q-82 0 -167 45t-128 90l-43 45v-686h-410v170zM596 377h537v614h-537v-614z" />
<glyph unicode="&#xff;" horiz-adv-x="1660" d="M133 1022v180h418l-2 -672h561v672h418v-180h-144l-112 -864q-14 -119 -58.5 -211t-99.5 -148.5t-123.5 -92.5t-128 -49t-117.5 -13h-307v223h609l8 567l-260 -196l-516 415v369h-146zM270 1442v327h330v-327h-330zM1059 1442v327h332v-327h-332z" />
<glyph unicode="&#x152;" horiz-adv-x="2387" d="M176 823.5q0 202.5 32 353t105.5 271.5t207.5 182.5t327 61.5q61 0 119.5 -19.5t97.5 -48.5t68.5 -57.5t44.5 -46.5l14 -21v150h1020v-295l-737 121v-1293l737 121v-303h-1020v158q-4 -8 -14.5 -21.5t-44 -48.5t-70.5 -61.5t-95.5 -48t-119.5 -21.5q-193 0 -327 61.5 t-207.5 182.5t-105.5 270.5t-32 352zM502 188h690v1272h-690v-1272zM1604 858l534 146v-293z" />
<glyph unicode="&#x153;" horiz-adv-x="2375" d="M147 600q2 309 148.5 476t398.5 167q121 0 214 -24.5t142.5 -64.5t71 -68.5t33.5 -55.5q152 213 430 213q51 0 90 -2t109.5 -15.5t125 -37t118 -71.5t104.5 -113.5t68.5 -170t27.5 -235.5v-127l-829 102l538 121l2 324h-577v-832h747q-2 -10 -9 -25.5t-43 -54t-87 -69.5 t-153.5 -55.5t-231.5 -24.5q-315 0 -446 209q-4 -25 -30 -55.5t-73 -67.5t-137 -61.5t-205 -24.5q-283 0 -416 149.5t-131 493.5zM473 186h651q-88 150 -88 441q0 229 111 391h-674v-832z" />
<glyph unicode="&#x178;" horiz-adv-x="1875" d="M184 1300v175h418l-2 -734h676v734h416v-175h-142v-331l-503 -496l36 -293h142v-180h-555v180h131l35 281q-39 25 -506 508v331h-146zM381 1671v328h330v-328h-330zM1169 1671v328h332v-328h-332z" />
<glyph unicode="&#x2c6;" horiz-adv-x="1228" d="M117 1597l350 144h147l-436 -428zM614 1741h148l350 -144l-61 -284z" />
<glyph unicode="&#x2dc;" horiz-adv-x="1228" d="M125 1323q-45 125 3 231.5t173 151.5q123 49 243 2t163 -170l397 205q45 -125 2 -222.5t-170 -152.5q-121 -55 -245 -6t-169 174z" />
<glyph unicode="&#x2000;" horiz-adv-x="1024" />
<glyph unicode="&#x2001;" horiz-adv-x="2050" />
<glyph unicode="&#x2002;" horiz-adv-x="1024" />
<glyph unicode="&#x2003;" horiz-adv-x="2050" />
<glyph unicode="&#x2004;" horiz-adv-x="681" />
<glyph unicode="&#x2005;" horiz-adv-x="512" />
<glyph unicode="&#x2006;" horiz-adv-x="339" />
<glyph unicode="&#x2007;" horiz-adv-x="339" />
<glyph unicode="&#x2008;" horiz-adv-x="256" />
<glyph unicode="&#x2009;" horiz-adv-x="409" />
<glyph unicode="&#x200a;" horiz-adv-x="112" />
<glyph unicode="&#x2010;" horiz-adv-x="1255" d="M147 653v236h959v-236h-959z" />
<glyph unicode="&#x2011;" horiz-adv-x="1255" d="M147 653v236h959v-236h-959z" />
<glyph unicode="&#x2012;" horiz-adv-x="1255" d="M147 653v236h959v-236h-959z" />
<glyph unicode="&#x2013;" horiz-adv-x="1255" d="M147 653v236h959v-236h-959z" />
<glyph unicode="&#x2014;" horiz-adv-x="1859" d="M143 653v236h1571v-236h-1571z" />
<glyph unicode="&#x2018;" horiz-adv-x="870" d="M143 1649h328l254 -582l-580 254z" />
<glyph unicode="&#x2019;" horiz-adv-x="917" d="M166 1067l254 582h330l-2 -328z" />
<glyph unicode="&#x201a;" horiz-adv-x="874" d="M145 -248l254 582h330l-2 -328z" />
<glyph unicode="&#x201c;" horiz-adv-x="1630" d="M143 1649h328l254 -582l-580 254zM903 1321v328h328l254 -582z" />
<glyph unicode="&#x201d;" horiz-adv-x="1675" d="M166 1067l254 582h330l-2 -328zM926 1067l254 582h327v-328z" />
<glyph unicode="&#x201e;" horiz-adv-x="1693" d="M176 -248l254 582h330l-2 -328zM936 -248l254 582h328v-328z" />
<glyph unicode="&#x2022;" horiz-adv-x="1386" d="M217 266v938h950v-938h-950z" />
<glyph unicode="&#x2026;" horiz-adv-x="2603" d="M145 -2v506h504v-506h-504zM1049 -2v506h503v-506h-503zM1950 -2v506h506v-506h-506z" />
<glyph unicode="&#x202f;" horiz-adv-x="409" />
<glyph unicode="&#x2039;" horiz-adv-x="874" d="M111 467v297l368 471l283 -182l-619 -437l619 -436l-283 -184z" />
<glyph unicode="&#x203a;" horiz-adv-x="874" d="M111 180l616 436l-616 437l280 182l371 -471v-297l-371 -471z" />
<glyph unicode="&#x205f;" horiz-adv-x="512" />
<glyph unicode="&#x20ac;" horiz-adv-x="1808" d="M61 657v336l326 -137q2 193 40 331t126 246.5t244.5 162t382.5 53.5h424v-316l-891 123v-1255h911q-2 -10 -9 -26.5t-40 -58.5t-78 -74t-129 -58.5t-188 -26.5q-399 0 -593 192.5t-200 645.5zM764 825l684 -168v336z" />
<glyph unicode="&#x2122;" horiz-adv-x="2615" d="M143 1405v244h873v-244h-129v68l-217 98l10 -701h119v-129h-434v129h108l12 701l-213 -98v-68h-129zM1024 741v129h82l111 674h-72v105h457l145 -652l147 652h455v-105h-68l107 -674h82v-129h-277l-106 883l-197 -666v-124h-286v124l-197 662l-104 -879h-279z" />
<glyph unicode="&#xe000;" horiz-adv-x="1200" d="M0 1200h1200v-1200h-1200v1200z" />
<glyph unicode="&#xfb01;" horiz-adv-x="2029" d="M123 0v180h143v647l-143 -45v244l143 -88v266q0 229 119 361q57 61 159.5 94t215.5 33q412 0 411 -215v-39h-639v-500l502 88v-244l-502 45v-647h144v-180h-553zM1360 0v180h135l-2 602h-133v119l403 139v-860h133v-180h-536zM1360 1317v375h426v-375h-426z" />
<glyph unicode="&#xfb02;" horiz-adv-x="2078" d="M123 0v180h143v647l-143 -45v244l143 -88v252q0 229 119 360q57 61 159.5 94t215.5 33q412 0 411 -215v-39h-639v-485l502 88v-244l-502 45v-647h144v-180h-553zM1384 -2v182h142v1293h-142v176h428v-1469h136v-182h-564z" />
<glyph unicode="&#xfb03;" horiz-adv-x="3166" d="M123 0v180h143v647l-143 -45v244l143 -88v266q0 229 119 361q57 61 159.5 94t215.5 33q412 0 411 -215v-39h-639v-500l502 88v-244l-502 45v-647h144v-180h-553zM1249 0v180h144v647l-144 -45v244l144 -88v266q0 229 118 361q57 61 160 94t215 33q412 0 412 -215v-39 h-639v-500l502 88v-244l-502 45v-647h143v-180h-553zM2497 0v180h135l-2 602h-133v119l403 139v-860h133v-180h-536zM2497 1317v375h425v-375h-425z" />
<glyph unicode="&#xfb04;" horiz-adv-x="3272" d="M123 0v180h143v647l-143 -45v244l143 -88v266q0 229 119 361q57 61 159.5 94t215.5 33q412 0 411 -215v-39h-639v-500l502 88v-244l-502 45v-647h144v-180h-553zM1249 0v180h144v647l-144 -45v244l144 -88v266q0 229 118 361q57 61 160 94t215 33q412 0 412 -215v-39 h-639v-500l502 88v-244l-502 45v-647h143v-180h-553zM2474 0v182h141v1291h-141v176h428v-1467h135v-182h-563z" />
</font>
</defs>
</svg>
