<?xml version="1.0" standalone="no"?>
<!DOCTYPE svg PUBLIC "-//W3C//DTD SVG 1.1//EN" "http://www.w3.org/Graphics/SVG/1.1/DTD/svg11.dtd" >
<svg xmlns="http://www.w3.org/2000/svg">
<metadata>
This is a custom SVG webfont generated by Font Squirrel.
Copyright   : Copyright c 2007 by Thomas HuotMarchand  256 All rights reserved
Designer    : Thomas HuotMarchand
Foundry     : Thomas HuotMarchand  256
Foundry URL : httpwww256tmcom
</metadata>
<defs>
<font id="Minuscule6Regular" horiz-adv-x="1501" >
<font-face units-per-em="2048" ascent="1591" descent="-457" />
<missing-glyph horiz-adv-x="520" />
<glyph unicode=" "  horiz-adv-x="520" />
<glyph unicode="&#x09;" horiz-adv-x="520" />
<glyph unicode="&#xa0;" horiz-adv-x="520" />
<glyph unicode="!" horiz-adv-x="481" d="M102 82q0 53 38 88t99.5 35t101.5 -35t40 -88q0 -55 -38 -88t-103.5 -33t-101.5 33t-36 88zM106 1305q0 109 30 153.5t106 44.5q74 0 102.5 -45t28.5 -153q0 -123 -35 -455q-39 -389 -39 -477h-117q0 125 -41 485q-35 330 -35 447z" />
<glyph unicode="&#x22;" horiz-adv-x="733" d="M55 1391q0 49 35 80.5t84 31.5t84 -31.5t35 -80.5q0 -41 -49 -252q-25 -109 -29 -140h-82q-4 31 -29 140q-49 211 -49 252zM444 1391q0 49 35 80.5t84 31.5t84 -31.5t35 -80.5q0 -41 -49 -252q-25 -109 -29 -140h-82q-4 31 -28 140q-50 211 -50 252z" />
<glyph unicode="#" horiz-adv-x="1341" d="M119 205v166h207v315h-207v164h207v209h163v-209h336v209h164v-209h207v-164h-207v-315h207v-166h-207v-205h-164v205h-336v-205h-163v205h-207zM475 367l8 -11q12 6 32 10.5t34 4.5h14h189q53 0 79 -15l9 11q-6 6 -10.5 25.5t-4.5 33.5v16v176q0 55 15 72l-9 8 q-12 -6 -31.5 -9t-33.5 -3h-14h-189q-53 0 -80 12l-8 -8q6 -8 10 -25.5t4 -31.5v-15v-176q0 -61 -14 -75z" />
<glyph unicode="$" horiz-adv-x="1302" d="M115 1067q0 180 117.5 297t330.5 135v227h174v-229q258 -39 353 -137v-236h-158q0 23 -4 49.5t-21.5 63.5t-46.5 65.5t-84 49t-127 20.5q-276 0 -276 -260q0 -102 68.5 -158.5t279.5 -107.5q250 -63 358.5 -155.5t108.5 -284.5q0 -178 -111.5 -294t-339.5 -141v-262h-174 v254q-281 35 -432 150v237h154q0 -27 13 -63.5t46 -81.5t103.5 -76t166.5 -31q313 0 314 264q0 68 -20.5 113t-74 77t-104.5 48t-151 41q-242 61 -352.5 155.5t-110.5 270.5z" />
<glyph unicode="%" horiz-adv-x="1724" d="M92 1118q0 45 7 89t27.5 96.5t54.5 91.5t94.5 64.5t140.5 25.5q96 0 164.5 -37t100.5 -97.5t45 -116.5t13 -115.5t-13 -116t-45 -117t-100.5 -97t-164.5 -36.5q-80 0 -140.5 25.5t-94.5 64.5t-54.5 91t-27.5 96t-7 89zM240 1118q0 -266 176 -266t176 266t-176 266 t-176 -266zM438 0l711 1462h194l-786 -1462h-119zM985 340q0 59 12.5 115.5t44 118t100 98.5t167 37t167 -37t100.5 -98.5t45 -118t13 -115.5q0 -45 -7 -89t-28.5 -95.5t-55.5 -90t-94 -64.5t-140 -26q-98 0 -167 37t-100.5 97.5t-44 116t-12.5 114.5zM1135 340 q0 -262 174 -262q176 0 176 262q0 270 -176 270q-174 0 -174 -270z" />
<glyph unicode="&#x26;" horiz-adv-x="1765" d="M98 422q0 164 129 262t275 98q-98 68 -171 159t-73 185q0 164 124 268.5t341 104.5q125 0 216 -33.5t137 -91t66.5 -115t20.5 -118.5q0 -55 -21.5 -103.5t-56 -79t-62.5 -49t-54 -28.5q-131 -55 -275 -64q16 -16 206 -199.5t263 -257.5q86 168 86 297h297v-71h-35 q-47 0 -68.5 -16.5t-41.5 -82.5q-39 -123 -125 -223q121 -96 187.5 -134t133.5 -38q66 0 95 60v-2q14 -33 14 -56q0 -66 -48 -119t-138 -53q-96 0 -204 75t-153 138q-184 -176 -452 -176q-291 0 -452 120t-161 343zM338 438q0 -143 105.5 -246.5t306.5 -103.5q203 0 319 135 q-82 66 -257 232t-288 286v2q-92 -43 -139 -126t-47 -179zM467 1147q0 -51 25.5 -100.5t49 -75t91.5 -92.5l26 -27v-2h3q111 18 201.5 99t90.5 198q0 109 -60 177.5t-175 68.5q-121 0 -186.5 -65.5t-65.5 -180.5z" />
<glyph unicode="'" horiz-adv-x="354" d="M59 1391q0 49 35 80.5t84 31.5t84 -31.5t35 -80.5q0 -41 -49 -252q-25 -109 -29 -140h-82q-4 31 -28 140q-50 211 -50 252z" />
<glyph unicode="(" horiz-adv-x="747" d="M117 616.5q0 165.5 28.5 314t87 278.5t161 220.5t237.5 120.5l43 -125q-162 -49 -244 -237.5t-82 -571.5q0 -258 39 -429t109.5 -259t177.5 -123l-43 -124q-135 31 -237.5 120.5t-161 221t-87 280t-28.5 314z" />
<glyph unicode=")" horiz-adv-x="745" d="M72 -195q164 53 245.5 242t81.5 569.5t-83 570t-244 238.5l45 125q137 -31 238.5 -120t159.5 -220t87 -279.5t29 -314t-29 -314t-87 -280t-160.5 -221.5t-237.5 -120q-35 95 -45 124z" />
<glyph unicode="*" horiz-adv-x="878" d="M102.5 985q8.5 35 38.5 53q41 25 174 60l107 16v10q-47 4 -107 19q-131 37 -174 61q-31 18 -38 53t12 64q16 31 49 41t63 -8q18 -10 54 -41t63 -56l25 -26q37 -37 65 -84l8 6q-20 41 -36 100q-35 133 -35 183q0 35 25.5 58.5t60.5 23.5t60.5 -24t25.5 -58q0 -23 -9.5 -68 t-17.5 -80l-8 -35q-14 -51 -39 -100l8 -4q27 39 68 84q98 96 139 121q33 18 65.5 7t49.5 -42q18 -29 11 -62.5t-38 -50.5q-18 -12 -62 -27.5t-79 -25.5l-35 -10l-104 -17v-10q47 -2 106 -16q133 -35 176 -60q31 -16 39 -51t-10 -63q-16 -31 -49 -41.5t-64 6.5q-18 10 -54 40 t-63 54l-26 25l-68 84l-8 -7q18 -43 37 -100q33 -133 33 -182q0 -35 -27 -59.5t-61 -22.5q-35 0 -59.5 23.5t-24.5 58.5q0 23 9 69t19 80l9 35q12 49 38 98l-8 5q-27 -39 -69 -82q-98 -96 -142 -121q-29 -18 -62.5 -8t-49.5 41q-19 28 -10.5 63z" />
<glyph unicode="+" horiz-adv-x="1019" d="M115 322v165h241q53 0 80 -14l6 10q-6 8 -10 27.5t-4 34.5v16v248h166v-248q0 -61 -16 -78l6 -10q12 6 31.5 10t33.5 4h15h241v-165h-241q-53 0 -80 12l-6 -6q16 -18 16 -80v-248h-166v248q0 61 14 80l-6 6q-12 -6 -31.5 -9t-33.5 -3h-15h-241z" />
<glyph unicode="," horiz-adv-x="483" d="M61 -264q16 10 40 27.5t65 79t43 128.5q-29 -12 -77 22t-48 95.5t37 105.5t115 44q72 0 116.5 -42t44.5 -116q0 -86 -28.5 -161t-65.5 -118t-83 -76.5t-71.5 -46t-37.5 -16.5z" />
<glyph unicode="-" horiz-adv-x="776" d="M111 430v141h553v-141h-553z" />
<glyph unicode="." horiz-adv-x="471" d="M86 98q0 63 41 101.5t108.5 38.5t108.5 -38t41 -101.5t-42 -102.5t-107 -39q-68 0 -109 37.5t-41 103.5z" />
<glyph unicode="/" horiz-adv-x="849" d="M0 -287l584 1790h231l-659 -1790h-156z" />
<glyph unicode="0" horiz-adv-x="1409" d="M162 653.5q0 71.5 4 133t18.5 135t38 131t64.5 115t97 95t138 61.5t185 24q139 0 241.5 -45.5t158.5 -112t90 -165.5t43 -183t9 -189q0 -102 -9 -186t-43 -182.5t-89 -166t-158.5 -112.5t-242.5 -45q-102 0 -184.5 23.5t-138.5 61.5t-97 95.5t-64.5 115.5t-38 131 t-18.5 133.5t-4 132zM391 653q0 -291 70.5 -428t245.5 -137q170 0 240.5 138.5t70.5 427t-70.5 428t-240.5 139.5q-174 0 -245 -139.5t-71 -428.5z" />
<glyph unicode="1" horiz-adv-x="940" d="M55 928v98q72 0 203 84t186 203h166v-1159q0 -66 49 -66h205v-88h-719v88h201q27 0 36 15.5t9 50.5v745l33 197l-10 4q-47 -82 -161 -127t-198 -45z" />
<glyph unicode="2" horiz-adv-x="1304" d="M156 0v160l77 59q113 88 196 160t203 189.5t187.5 233.5t67.5 212t-64.5 158.5t-165.5 62.5q-162 0 -247 -72q-8 -8 -33 -39.5t-45.5 -43t-55.5 -11.5q-84 0 -83 78q0 98 144 151.5t351 53.5q174 0 309.5 -91.5t135.5 -261.5q0 -172 -158 -344q-162 -170 -531 -419 q-74 -49 -153 -80v-25l602 19q139 12 139 126h117v-276h-993z" />
<glyph unicode="3" horiz-adv-x="1306" d="M147 -53q0 39 26 60.5t67 21.5q23 0 42 -8.5t25 -14.5t33 -29q57 -49 223 -49q164 0 262.5 78t98.5 223q0 123 -58.5 204t-175.5 81q-29 0 -92 -6t-100 -6q-109 0 -115 84q-4 31 7 52t41 31.5t51.5 14.5t60.5 8q131 14 224 94t95 211q2 115 -61.5 176.5t-175.5 61.5 q-178 0 -254 -90q-23 -29 -33 -39t-34.5 -23.5t-51.5 -13.5q-39 0 -63.5 19.5t-24.5 56.5q0 102 147.5 154.5t341.5 52.5q111 0 207 -32t168 -112t72 -196q0 -100 -43 -175t-120 -118t-163 -65.5t-188 -30.5l6 -29q113 10 172 10q182 0 291.5 -89t109.5 -284 q0 -188 -172 -304.5t-411 -116.5q-435 0 -435 137z" />
<glyph unicode="4" horiz-adv-x="1214" d="M55 412v88q90 150 152.5 292t86 216.5t53.5 191.5t40 150q25 86 57.5 119.5t110.5 33.5q96 0 96 -88q0 -150 -136 -413t-273 -416l-62 -70l8 -8q20 8 58.5 13t64.5 7h29h383l84 306h119l-13 -306l244 4v-120h-244l17 -260q2 -25 4 -36.5t11 -19.5t30 -8h135v-88h-580v88 h136q16 0 24 3t12.5 15.5t4.5 17.5t2 28l14 264z" />
<glyph unicode="5" horiz-adv-x="1292" d="M164 -41q0 80 86 80q27 0 45 -10.5t37.5 -28.5t29.5 -27q68 -45 216 -45q78 0 138 14.5t115.5 50.5t85 108.5t29.5 177.5q0 139 -74.5 217.5t-218.5 78.5q-92 0 -164.5 -26.5t-156.5 -89.5q-66 -49 -111 -13q-51 43 -20 125q43 117 64.5 266.5t24.5 238.5t3 237h561 q68 0 87.5 21.5t19.5 90.5h106v-272h-496q-70 0 -114 12l-11 -288q-4 -133 -96 -269l12 -12q195 111 359 111q193 0 332 -105.5t139 -325.5q0 -121 -49 -213t-132 -146t-185.5 -80.5t-219.5 -26.5q-442 -1 -442 149z" />
<glyph unicode="6" horiz-adv-x="1384" d="M121 643q0 174 31.5 321.5t102.5 274.5t200 199.5t305 72.5q317 0 317 -133q0 -35 -22.5 -54t-59.5 -19q-41 0 -84 32q-59 47 -149 47q-82 0 -146.5 -27.5t-106.5 -68.5t-72.5 -107.5t-46 -125t-24 -141.5t-10.5 -137t-2 -130q66 98 176.5 168t257.5 70q115 0 204 -39 t140.5 -102.5t77 -136t25.5 -148.5q0 -211 -149.5 -354.5t-395.5 -143.5q-281 0 -425 174t-144 508zM354 557q0 -219 84 -344t252 -125q129 0 220 87t91 243q0 336 -286 336q-98 0 -204 -59.5t-157 -137.5z" />
<glyph unicode="7" horiz-adv-x="1138" d="M115 1032v281h991v-162q-127 -106 -240.5 -284.5t-187.5 -370t-110 -304t-58 -200.5q-25 -98 -54.5 -140t-101.5 -42q-51 0 -84.5 36.5t-33.5 98.5q0 186 191 533t429 603q16 18 35.5 33.5t36 27t30 19.5t23.5 15l10 4q-516 0 -602 -11q-158 -16 -158 -137h-116z" />
<glyph unicode="8" horiz-adv-x="1372" d="M162 375q0 129 95 223t273 113q-176 45 -248.5 150.5t-72.5 234.5q0 164 132 285.5t341 121.5q244 0 358.5 -101.5t114.5 -262.5q0 -123 -112.5 -209t-249.5 -111q240 -61 328.5 -152.5t88.5 -263.5q0 -53 -15 -109t-55 -117.5t-97.5 -109t-151.5 -78t-211 -30.5 q-100 0 -188.5 22.5t-165 68.5t-120.5 130t-44 195zM371 385q0 -135 86 -216t221 -81q154 0 226.5 87t72.5 210q0 117 -89 192.5t-308 122.5q-80 -27 -144.5 -105.5t-64.5 -209.5zM438 1122q0 -113 74 -179t244 -112q76 23 132 103t56 188q0 127 -63.5 195.5t-178.5 68.5 q-113 0 -188.5 -66.5t-75.5 -197.5z" />
<glyph unicode="9" horiz-adv-x="1376" d="M121 854q0 211 149.5 354.5t395.5 143.5q281 0 425 -174t144 -508q0 -174 -32 -321.5t-102.5 -274.5t-199.5 -200t-305 -73q-317 0 -317 133q0 35 22.5 54.5t58.5 19.5q41 0 84 -33q59 -47 150 -47q82 0 146.5 28t106.5 69t72.5 107.5t46 124.5t23.5 141t10 137.5 t2 130.5q-66 -98 -176 -168t-258 -70q-115 0 -204 39t-140 102.5t-76.5 136t-25.5 148.5zM354 895q0 -336 287 -336q98 0 203.5 59.5t156.5 137.5q0 219 -83.5 344t-251.5 125q-129 0 -220.5 -87t-91.5 -243z" />
<glyph unicode=":" horiz-adv-x="468" d="M70 98q0 63 41 101.5t108.5 38.5t108.5 -38t41 -101.5t-42 -102.5t-108 -39q-68 0 -108.5 37.5t-40.5 103.5zM70 913q0 63 41 101.5t108.5 38.5t108.5 -38t41 -101.5t-42 -102.5t-108 -39q-68 0 -108.5 37.5t-40.5 103.5z" />
<glyph unicode=";" horiz-adv-x="485" d="M61 -264q16 10 40 27.5t65 79t43 128.5q-29 -12 -77 22t-48 95.5t37 105.5t115 44q72 0 116.5 -42t44.5 -116q0 -86 -28.5 -161t-65.5 -118t-83 -76.5t-71.5 -46t-37.5 -16.5zM102 913q0 63 41 101.5t108.5 38.5t108.5 -38t41 -101.5t-42 -102.5t-107 -39 q-68 0 -109 37.5t-41 103.5z" />
<glyph unicode="&#x3c;" horiz-adv-x="1261" d="M131 688v88l803 688h199l-633 -620q-76 -78 -152 -103v-18q33 -12 71 -38t60 -46l21 -18q82 -82 633 -621h-199z" />
<glyph unicode="=" horiz-adv-x="1138" d="M115 203v168h909v-168h-909zM115 803v164h909v-164h-909z" />
<glyph unicode="&#x3e;" horiz-adv-x="1163" d="M31 0l631 621q76 76 153 102v18q-35 10 -72.5 36t-58.5 46l-22 21q-82 80 -631 620h196l803 -688v-88l-803 -688h-196z" />
<glyph unicode="?" horiz-adv-x="1161" d="M68 1290q0 100 152.5 156.5t365.5 56.5q86 0 164.5 -16.5t154.5 -52t121 -105t45 -164.5q0 -178 -199 -358q-160 -152 -203.5 -230.5t-43.5 -205.5h-174v59q0 100 40.5 199.5t155.5 226.5q158 176 158 307q0 96 -71.5 155.5t-176.5 59.5q-172 0 -260 -73 q-16 -14 -38.5 -44t-43 -42.5t-53.5 -12.5q-94 0 -94 84zM403 82q0 53 38 88t99.5 35t101.5 -35t40 -88q0 -55 -38 -88t-103.5 -33t-101.5 33t-36 88z" />
<glyph unicode="@" horiz-adv-x="2076" d="M139 430q0 279 151.5 469.5t444.5 190.5q92 0 175 -41t139 -113q10 39 30 78l213 35q-82 -162 -140 -365t-58 -375q0 -231 202 -231q121 0 220.5 142t148.5 339t49 389q0 90 -12 161t-48 138.5t-94.5 111.5t-155.5 71.5t-226 27.5q-229 0 -375 -49l-41 104q201 70 450 70 q741 0 742 -702q0 -125 -19.5 -247t-67.5 -249t-121 -221t-190.5 -154.5t-265.5 -60.5q-264 0 -352 139v4q-135 -135 -346 -135q-221 0 -337 127t-116 346zM371 412q0 -135 53 -229.5t172 -94.5q184 0 295 129q-6 37 -6 98q0 242 112 519q-104 127 -233 127 q-104 0 -183 -49.5t-123 -131.5t-65.5 -175t-21.5 -193z" />
<glyph unicode="A" d="M31 0v88h65q45 0 66 64l450 1310h295l430 -1319q20 -55 54 -55h79v-88h-503v88h65q35 0 48.5 20.5t4.5 49.5l-81 272h-568l-82 -272q-4 -15 -4 -28q0 -42 51 -42h70v-88h-440zM481 571h482l-195 658l-29 137h-6z" />
<glyph unicode="B" horiz-adv-x="1394" d="M68 0v88h122q29 0 39.5 15.5t10.5 48.5v1157q0 35 -10.5 50t-39.5 15h-122v88q485 16 606 17q82 0 138 -4.5t137 -26t130 -59t86 -112.5t37 -181q0 -129 -82 -217q-76 -74 -213 -84v-27q174 -2 267 -88q98 -98 98 -256q0 -111 -32 -191.5t-84 -128t-132 -75t-160 -36.5 t-184 -9q-158 0 -367 8q-167 8 -245 8zM473 121q76 -12 233.5 -12t236.5 73.5t79 233.5q0 180 -91 238.5t-272 58.5q-113 0 -186 -13v-579zM473 831q72 -8 164 -8q160 0 243 58.5t83 216.5q0 270 -283 270l-207 -14v-523z" />
<glyph unicode="C" horiz-adv-x="1452" d="M121 729q0 197 57.5 348.5t156.5 242.5t223 136t269 45q141 0 263 -33.5t167.5 -59.5t67.5 -46v-240h-121q-6 33 -22.5 68t-52 81t-107.5 74.5t-166 28.5q-223 0 -347 -159.5t-124 -485.5q0 -637 457 -637q250 0 418 219l100 -98q-90 -125 -214 -188.5t-319 -63.5 q-315 0 -510.5 189.5t-195.5 578.5z" />
<glyph unicode="D" horiz-adv-x="1619" d="M63 0v88h127q31 0 40.5 14.5t9.5 49.5v1157q0 35 -9.5 50t-40.5 15h-122v88q156 0 341 8.5t289 8.5q133 0 237.5 -14.5t213 -61.5t179.5 -126t116 -215t45 -321q0 -223 -53.5 -374.5t-159 -231.5t-231 -111.5t-302.5 -31.5q-100 0 -323.5 4t-356.5 4zM479 125 q33 -16 273 -16q139 0 235 48t146.5 140t71 197.5t20.5 246.5q0 109 -11.5 196t-43 170t-84 137t-136.5 88t-196 34q-86 0 -155 -4t-95 -8l-25 -4v-1225z" />
<glyph unicode="E" horiz-adv-x="1331" d="M72 0v88h118q31 0 40.5 15.5t9.5 48.5v1157q0 35 -9.5 50t-40.5 15h-118v88h1145v-340h-127q-2 63 -20.5 107.5t-44.5 69t-65.5 38t-72.5 16.5t-78 3h-328v-535l529 2v-131l-529 4v-581l355 -2q49 0 77.5 2t71.5 14t67.5 34.5t43 67.5t18.5 109v4h131v-344h-1173z" />
<glyph unicode="F" horiz-adv-x="1286" d="M70 0v88h118q31 0 41.5 15.5t10.5 48.5v1157q0 35 -10.5 50t-41.5 15h-118v88h1147v-340h-127q-2 78 -28 128t-72 71.5t-86 28t-97 6.5l-326 -2v-541q440 10 529 10v-141l-529 10v-540q0 -33 9.5 -48.5t39.5 -15.5h144v-88h-604z" />
<glyph unicode="G" horiz-adv-x="1533" d="M131 729q0 346 182.5 559t522.5 213q115 0 212 -18.5t157.5 -46t87 -44t42.5 -30.5v-240h-118q-31 119 -125.5 185.5t-225.5 66.5q-133 0 -228 -53t-145.5 -149.5t-73 -204t-22.5 -238.5q0 -637 453 -637q158 0 274 84v354q0 37 -9 52.5t-40 15.5h-100v90h514v-90h-88 q-53 0 -53 -68v-399q-197 -170 -512 -170q-348 0 -526.5 209t-178.5 559z" />
<glyph unicode="H" horiz-adv-x="1652" d="M82 0v88h108q31 0 40.5 15.5t9.5 48.5v1157q0 35 -10.5 50t-39.5 15h-100v88h516v-88h-76q-31 0 -40 -15.5t-9 -49.5l-8 -498h705q0 80 -4.5 248t-6.5 250q0 37 -8 51t-39 14h-88v88h522v-88h-96q-31 0 -39 -14t-8 -51l2 -1157q0 -33 8.5 -48.5t36.5 -15.5h109 q0 -18 -1 -45t-1 -43h-539v88h94q31 0 39 15.5t8 48.5l11 516h-705q0 -51 4 -234.5t4 -281.5q0 -33 10.5 -48.5t43.5 -15.5h83v-88h-536z" />
<glyph unicode="I" horiz-adv-x="763" d="M68 0v88h145q31 0 39 15.5t8 48.5v1157q0 37 -8 51t-39 14h-133v88h600v-88h-131q-47 0 -47 -65v-1157q0 -33 9 -48.5t40 -15.5h139v-88h-622z" />
<glyph unicode="J" horiz-adv-x="1189" d="M63 115v229h144q0 -37 6 -68.5t28.5 -78.5t80 -76t143.5 -29q72 0 121 23.5t77.5 58.5t44 98.5t19.5 123t4 149.5v764q0 35 -10 50t-39 15h-147v88h602v-88h-115q-31 0 -41 -15.5t-10 -49.5v-760q0 -98 -7.5 -170t-38 -157t-84 -137t-150.5 -88t-234 -36q-31 0 -80 6 t-156 44t-158 104z" />
<glyph unicode="K" horiz-adv-x="1548" d="M80 0v88h113q31 0 39 14.5t8 49.5v1157q0 37 -8.5 51t-38.5 14h-105v88h385v-1310q0 -63 53 -64h105v-88h-551zM569 758l496 594v110h340v-88h-59q-31 0 -80 -49l-4 -4l-463 -539q27 -16 56.5 -40.5t45.5 -41.5l17 -18h-3q115 -129 474 -541q47 -53 100 -53h37v-88h-414 v113q-92 109 -272.5 324t-270.5 321z" />
<glyph unicode="L" horiz-adv-x="1263" d="M72 0v88h118q31 0 40.5 15.5t9.5 48.5v1157q0 35 -9.5 50t-40.5 15h-118v88h583v-88h-125q-29 0 -38 -15.5t-9 -49.5v-1194l330 -2q59 0 97 5t85 25.5t72 69.5t25 127v4h127v-344h-1147z" />
<glyph unicode="M" horiz-adv-x="2119" d="M35 0v88h104q20 0 31.5 8t15.5 20.5t7 35.5l114 1157q1 6 1 12q0 53 -52 53h-123v88h516l350 -942l50 -168h8q63 184 194 555t195 555h524v-88h-123q-47 0 -46 -48q0 -9 1 -19l131 -1155q2 -23 5.5 -34.5t14.5 -20.5t32 -9h114v-88h-545v88h80q47 0 47 66l-108 1212 q-20 -86 -53 -172l-406 -1077h-172l-416 1077q-37 96 -53 172l-98 -1214q-1 -6 -1 -12q0 -52 52 -52h80v-88h-471z" />
<glyph unicode="N" horiz-adv-x="1685" d="M80 0v88h113q31 0 39 14.5t8 49.5v1157q0 37 -8.5 51t-38.5 14h-113v88h483l578 -958q102 -174 139 -283v1088q0 35 -10 50t-43 15h-94v88h477v-88h-105q-31 0 -40 -14t-9 -51v-1309h-248l-684 1112q-29 45 -52 94t-33.5 78t-12.5 37l-4 -1167q0 -35 9 -50.5t38 -15.5h82 v-88h-471z" />
<glyph unicode="O" horiz-adv-x="1632" d="M131 729q0 395 187.5 583.5t498.5 188.5q309 0 496.5 -188.5t187.5 -583.5q0 -391 -187.5 -579.5t-496.5 -188.5q-311 0 -498.5 188.5t-187.5 579.5zM397 729q0 -186 33 -315t93.5 -196.5t131 -96.5t162.5 -29q72 0 130.5 16.5t113.5 60.5t93 113.5t60.5 183.5t22.5 263 q0 188 -33 319.5t-94 199t-131 96t-162 28.5t-162.5 -28.5t-131 -97t-93.5 -199t-33 -318.5z" />
<glyph unicode="P" horiz-adv-x="1382" d="M72 0v88h123q31 0 40 15.5t9 48.5v1157q0 37 -9.5 51t-39.5 14h-123v88q92 0 280.5 6.5t298.5 6.5h11q68 0 104.5 -1t104 -5.5t107.5 -16.5t95 -31.5t88 -52.5t66 -77t47 -108.5t14 -144.5q0 -129 -44 -216t-128 -131t-178 -60.5t-221 -16.5h-228v-462q0 -33 10.5 -48.5 t41.5 -15.5h139v-88h-608zM489 735h218q186 0 257.5 73t71.5 251q0 158 -79 232q-77 73 -249 73h-10l-209 -12v-617z" />
<glyph unicode="Q" horiz-adv-x="1630" d="M131 729q0 395 186.5 583.5t497.5 188.5t497.5 -188.5t186.5 -583.5q0 -391 -187.5 -579.5t-496.5 -188.5t-496.5 188.5t-187.5 579.5zM395 729q0 -150 22.5 -263.5t60.5 -183t93.5 -113.5t113.5 -60.5t130 -16.5q92 0 163 29t132 96.5t94 196.5t33 315q0 188 -33 318.5 t-94 199t-132 97t-163 28.5t-161.5 -28.5t-131 -96t-94.5 -199t-33 -319.5zM760 -156q39 37 186 45q6 0 12 1q72 0 252 -21q137 -21 233 -21h17q41 0 85 23t57 51q27 -31 26 -100q0 -63 -39 -112.5t-121 -53.5q-104 0 -333 94q-121 45 -179 64q-116 30 -196 30z" />
<glyph unicode="R" horiz-adv-x="1480" d="M72 1374v88q88 0 273 6.5t296 6.5q78 0 124 -1t113.5 -6.5t109.5 -17.5t93.5 -31.5t82 -51.5t59 -75t41 -103.5t12.5 -135.5q0 -133 -92 -233.5t-205 -110.5v-27q100 -2 160 -57q31 -29 55.5 -79t35.5 -85t29.5 -113t24.5 -100q2 -6 7 -24.5t7 -27t7.5 -23.5t9.5 -22.5 t11 -18.5t14.5 -16t17.5 -9.5t20 -4.5q29 0 66 21l53 -84q-82 -78 -219 -78q-45 0 -82 20.5t-60.5 49t-47 89t-38 107.5t-38.5 140q-47 182 -119 235t-227 53q-49 0 -106.5 -1t-78.5 -1v-501q0 -33 9.5 -48.5t39.5 -15.5h80v-88h-532v88h117q31 0 41 15.5t10 48.5v1157 q0 35 -10.5 50t-40.5 15h-123zM481 776h215q188 0 259 64.5t71 232.5q0 156 -78 223.5t-258 67.5q-51 0 -103 -4t-79 -8l-27 -2v-574z" />
<glyph unicode="S" horiz-adv-x="1277" d="M115 1067q0 195 135 314.5t377 119.5q35 0 89 -5t175 -41t184 -93v-238h-147q-2 35 -13.5 71t-40 80t-89 70.5t-146.5 26.5q-293 0 -293 -260q0 -98 77 -161.5t286 -112.5q236 -57 346 -151.5t110 -280.5q0 -203 -139 -323t-430 -120q-31 2 -82 7t-177 42t-214 99v239 h147q2 -33 16.5 -69.5t48.5 -80.5t103.5 -73t165.5 -29q154 0 240 65.5t86 198.5q0 127 -86 185.5t-277 103.5q-242 59 -347 148.5t-105 267.5z" />
<glyph unicode="T" horiz-adv-x="1402" d="M63 1122v340h1278v-340h-124q-2 63 -21.5 107.5t-45.5 69t-66 38t-72.5 16.5t-77.5 3h-113v-1204q0 -33 9.5 -48.5t39.5 -15.5h123v-88h-583v88h120q31 0 39.5 15.5t8.5 48.5v1204h-111q-59 0 -98 -6.5t-86 -26.5t-71 -70.5t-26 -130.5h-123z" />
<glyph unicode="U" horiz-adv-x="1570" d="M51 1374v88h563v-88h-100q-31 0 -39 -14t-8 -51v-688q0 -84 2 -138.5t10 -116t23.5 -98.5t41 -74.5t64.5 -57t94.5 -32t126.5 -12.5q90 0 152.5 27.5t97.5 69.5t53.5 118t23.5 145.5t5 178.5v678q0 35 -10 50t-41 15h-98v88h508v-88h-119q-29 0 -39 -15.5t-10 -49.5v-684 q0 -113 -8.5 -196t-40 -176t-88 -152.5t-158 -99.5t-242.5 -40q-160 0 -273.5 38t-175 95.5t-96 151.5t-43 176t-8.5 201v686q0 35 -10 50t-41 15h-117z" />
<glyph unicode="V" horiz-adv-x="1513" d="M31 1374v88h514v-88h-66q-56 0 -56 -42q0 -12 5 -27l317 -1074q12 -41 18.5 -74.5t6.5 -45.5l2 -15h8l377 1209q10 29 -2 49t-45 20h-68v88h441v-88h-76q-6 0 -11 -1t-8.5 -2t-7.5 -3t-6 -4t-5 -6t-4 -6t-3 -8.5t-3 -8.5t-4 -10t-3 -10l-453 -1315h-305l-428 1313 q-8 20 -12 29.5t-15.5 20.5t-27.5 11h-80z" />
<glyph unicode="W" horiz-adv-x="2457" d="M31 1374v88h514v-88h-66q-55 0 -55 -42q0 -11 4 -25l283 -1074l30 -133h9q72 240 203.5 695.5t195.5 666.5h242l368 -1231l27 -133h8l309 1209q4 14 4 25q0 42 -53 42h-67v88h440v-88h-76q-37 0 -55 -63l-381 -1311h-334l-299 1016q-16 57 -24.5 102t-8.5 62v16h-10 q-68 -229 -200 -660.5t-162 -535.5h-318l-393 1313q-18 61 -55 61h-80z" />
<glyph unicode="X" horiz-adv-x="1484" d="M31 0v88h53q39 0 80 57l420 609l-398 561q-41 59 -77 59h-52v88h396v-112l278 -428q33 -49 55 -113l291 496q16 25 6 47t-43 22h-65v88h450v-88h-51q-35 0 -69 -53l-404 -588l416 -590q37 -55 78 -55h59v-88h-401v104l-299 459q-35 53 -54 115l-303 -522q-16 -18 -8 -43 t43 -25h66v-88h-467z" />
<glyph unicode="Y" horiz-adv-x="1392" d="M31 1374v88h368v-110l291 -543q29 -53 53 -135l316 631q13 24 13 39q0 30 -46 30h-68v88h404v-88h-53q-33 0 -64 -59l-411 -762v-401q0 -33 10 -48.5t41 -15.5h139v-88h-612v88h139q31 0 40 15.5t9 48.5v393l-438 770q-33 59 -66 59h-65z" />
<glyph unicode="Z" horiz-adv-x="1302" d="M72 0v98q627 909 772 1125q74 104 121 129l-449 -2q-51 0 -77.5 -2t-70.5 -14.5t-68 -35t-42 -67.5t-20 -109h-121v340h1083v-94l-721 -1087q-78 -113 -143 -172l483 4q141 2 211 49t70 182h131v-344h-1159z" />
<glyph unicode="[" horiz-adv-x="686" d="M127 -291v1753h498v-84h-303q20 -57 20 -98v-1395q0 -16 -5 -41.5t-9 -42.5l-6 -16h303v-76h-498z" />
<glyph unicode="\" horiz-adv-x="849" d="M0 1462h246l557 -1753h-154z" />
<glyph unicode="]" horiz-adv-x="686" d="M127 -215h303q-20 61 -20 100v1395q0 18 5 43t11 41l4 14h-303v84h498v-1753h-498v76z" />
<glyph unicode="^" horiz-adv-x="1185" d="M217 1282l252 313h244l252 -313l-56 -57l-319 254l-320 -254z" />
<glyph unicode="_" horiz-adv-x="1138" d="M111 -25h919v-141h-919v141z" />
<glyph unicode="`" horiz-adv-x="1228" d="M328 1538q-16 12 4 12h286l185 -295h-92z" />
<glyph unicode="a" horiz-adv-x="1105" d="M78 281q0 150 108.5 232.5t298.5 82.5l238 -14v194q0 119 -38 162t-148 43q-176 0 -203 -94q-18 -63 -96 -64q-41 0 -69 25.5t-28 60.5q0 57 43 98.5t114 58.5t131 24.5t126 7.5q100 0 171 -20.5t109.5 -49.5t60.5 -78t27 -90t5 -100v-426q0 -70 21.5 -126t42 -80 t59.5 -60l-117 -113q-90 55 -148 170q-127 -164 -352 -164q-45 0 -90 8t-94 29.5t-86 55.5t-61.5 92.5t-24.5 134.5zM291 276q0 -92 58.5 -137t117.5 -45q82 0 153.5 40t110.5 104q-8 86 -8 139v110q-119 10 -174 11q-258 -1 -258 -222z" />
<glyph unicode="b" horiz-adv-x="1263" d="M66 1462v86h335v-600q80 76 155 112t181 36q78 0 148.5 -27t136 -86t104.5 -173t39 -269q0 -295 -135 -438.5t-325 -143.5q-225 0 -363 162q-27 -51 -156 -162l-104 109q121 96 121 307v1020q0 37 -9.5 52t-37.5 15h-90zM399 250q113 -150 277 -150q119 0 186.5 115 t67.5 326q0 412 -256 411q-137 0 -268 -164v-337z" />
<glyph unicode="c" horiz-adv-x="1067" d="M98 528q0 262 137.5 416t374.5 154q166 0 266.5 -56.5t100.5 -154.5q0 -33 -24.5 -57.5t-61.5 -24.5q-61 0 -86 39q-6 8 -14.5 26.5t-16.5 33t-20 24.5q-47 39 -144 39q-131 0 -205.5 -108.5t-74.5 -330.5q0 -215 77.5 -327.5t210.5 -112.5q168 0 302 137l84 -112 q-20 -23 -57.5 -50.5t-133.5 -64.5t-203 -37q-111 0 -199.5 33t-146 87t-95.5 128t-54.5 152.5t-16.5 166.5z" />
<glyph unicode="d" horiz-adv-x="1255" d="M98 541q0 244 105.5 399.5t320.5 155.5q106 0 181 -35t157 -113v447q0 37 -11 52t-42 15h-88v86h338v-1173q0 -186 123 -307l-105 -109q-119 96 -153 162q-143 -162 -361 -162q-195 0 -330 144.5t-135 437.5zM330 541q0 -211 68.5 -326t187.5 -115q166 0 278 150 q-8 127 -8 192v346q-137 164 -264 164q-129 0 -195.5 -106t-66.5 -305z" />
<glyph unicode="e" horiz-adv-x="1157" d="M98 528q0 68 11.5 136.5t45 149.5t88 141.5t148.5 101.5t215 41q248 0 350.5 -142.5t102.5 -392.5q0 -27 -7.5 -37t-29.5 -10h-692v-12q0 -412 303 -412q176 0 315 121l92 -115q-6 -6 -17 -15t-50 -32.5t-83 -42t-117 -33t-150 -14.5q-127 0 -224.5 37t-153 94.5t-90 136 t-46 149t-11.5 150.5zM336 621h498v12q0 180 -51.5 262t-176.5 82q-270 0 -270 -344v-12z" />
<glyph unicode="f" horiz-adv-x="874" d="M51 932v133l172 -10v147q0 184 96.5 288.5t260.5 104.5q303 0 303 -143q0 -33 -19.5 -54.5t-54.5 -21.5q-29 0 -49.5 9.5t-25.5 15.5t-19 26q-39 47 -111 48q-106 0 -140 -73t-34 -200v-145l369 12v-137l-369 6v-786q0 -59 31 -64h133v-88h-506v88h90q27 0 36 15.5 t9 48.5v784z" />
<glyph unicode="g" horiz-adv-x="1187" d="M82 43q0 72 28.5 127t74.5 85t87 46t78 21q-31 0 -76 34q-147 119 -147 322q0 188 128 304t323 116q129 0 231 -51v10q0 123 84 201.5t201 80.5q66 0 108.5 -25.5t42.5 -74.5q0 -39 -25.5 -64.5t-70.5 -25.5q-33 0 -53 20q-19 17 -51 17h-13q-49 -4 -83 -59 q-27 -44 -27 -101q0 -14 2 -29l6 -47q98 -119 98 -272q0 -188 -128 -305t-322 -117q-63 0 -140 20q-166 -55 -166 -196q0 -53 18.5 -86t55.5 -46.5t66.5 -17.5t76.5 -4q55 0 176 4t191 4q225 0 225 -127q0 -43 -28.5 -80.5t-67.5 -45.5q-12 43 -50 62t-118 19q-57 0 -188 -4 t-211 -4q-158 0 -247 80t-89 209zM354 678q0 -152 58.5 -229.5t165 -77.5t166 78.5t59.5 228.5q0 147 -59.5 226t-166 79t-165 -79t-58.5 -226z" />
<glyph unicode="h" horiz-adv-x="1312" d="M66 0v88h94q43 0 43 64v1245q0 66 -43 65h-94v86h344v-633q156 182 376 183q139 0 238.5 -97.5t99.5 -279.5v-569q0 -63 45 -64h93v-88h-347v600q0 72 -2 110t-12 91t-30.5 79.5t-61.5 46t-100 19.5q-150 0 -306 -219l7 -143v-432q0 -33 9 -48.5t36 -15.5h90v-88h-479z " />
<glyph unicode="i" horiz-adv-x="593" d="M66 0v88h90q27 0 36 15.5t9 48.5v745q0 68 -45 68h-90v92h344v-905q0 -35 7 -49.5t34 -14.5h92v-88h-477zM150 1432q0 131 141 131q72 0 107.5 -36t35.5 -95q0 -61 -39 -97.5t-104.5 -36.5t-103 36.5t-37.5 97.5z" />
<glyph unicode="j" horiz-adv-x="589" d="M-211 -317q0 31 24.5 54t61.5 23q31 0 62.5 -31.5t42.5 -37.5q33 -18 86 -19q61 0 96 35q18 18 27.5 53t10.5 69t1 110v962q0 35 -9.5 50.5t-37.5 15.5h-88v92h337v-1100q0 -127 -21.5 -199.5t-74.5 -126.5q-84 -86 -231 -86q-129 0 -208 35t-79 101zM139 1431.5 q0 61.5 36 96.5t104 35q145 0 145 -131q0 -61 -39 -97.5t-106 -36.5q-63 0 -101.5 36t-38.5 97.5z" />
<glyph unicode="k" horiz-adv-x="1269" d="M66 0v88h94q43 0 43 64v1243q0 68 -43 67h-94v86h344v-1548h-344zM479 608l371 355v96h307v-90h-43q-47 0 -96 -49l-252 -240q-49 -45 -84 -66q41 -14 84 -61l336 -399q53 -66 108 -66h27v-88h-330v80q-80 98 -225.5 277t-202.5 251z" />
<glyph unicode="l" horiz-adv-x="595" d="M66 0v88h94q43 0 43 64v1245q0 66 -43 65h-94v86h344v-1396q0 -33 9 -48.5t36 -15.5h90v-88h-479z" />
<glyph unicode="m" horiz-adv-x="2011" d="M25 999l266 101q61 -121 96 -240q100 133 194.5 185.5t217.5 52.5q96 0 178 -52.5t121 -150.5v-4q94 121 187 164t206 43q135 0 238.5 -93.5t103.5 -289.5v-563q0 -33 9 -48.5t36 -15.5h90v-88h-344v600q0 66 -3 110t-14.5 93t-32 76.5t-57 47t-90.5 19.5 q-158 0 -303 -209q4 -57 4 -86v-499q0 -33 9.5 -48.5t36.5 -15.5h90v-88h-346v600q0 72 -2.5 111t-12.5 91t-29.5 78.5t-57.5 46t-93 19.5q-82 0 -150.5 -51t-150.5 -174q8 -70 8 -117v-452q0 -35 9.5 -49.5t39.5 -14.5h84v-88h-479v88h92q27 0 36 15.5t9 48.5v311 q0 289 -47 409q-40 89 -82 90q-5 0 -10 -1l-35 -11z" />
<glyph unicode="n" horiz-adv-x="1333" d="M25 999l266 101q66 -135 96 -240q100 133 197.5 185.5t220.5 52.5q141 0 241.5 -97.5t100.5 -279.5v-569q0 -33 9 -48.5t36 -15.5h90v-88h-348v600q0 74 -1 107.5t-11.5 90t-30 81t-59 46t-99.5 21.5q-160 0 -311 -225q8 -70 8 -117v-452q0 -35 9.5 -49.5t39.5 -14.5h84 v-88h-481v88h94q27 0 35 15.5t8 48.5v311q0 293 -45 405q-38 94 -82 94q-6 0 -12 -1l-33 -9z" />
<glyph unicode="o" horiz-adv-x="1216" d="M98 528q0 72 10.5 140.5t43 149.5t86 140.5t149.5 99.5t223 40q125 0 220.5 -40t148.5 -99.5t87 -140.5t44 -149.5t10 -140t-10 -139t-44 -148.5t-87 -140.5t-148.5 -99.5t-220.5 -40q-106 0 -191 27.5t-138.5 75t-91 103.5t-57 123.5t-27 124t-7.5 113.5zM330 528 q0 -451 278 -450q276 0 277 450q0 455 -277 455q-145 0 -211.5 -114t-66.5 -341z" />
<glyph unicode="p" horiz-adv-x="1292" d="M25 997l266 109q29 -45 55.5 -115.5t26.5 -85.5q156 190 377 191q205 0 323.5 -146.5t118.5 -433.5q0 -244 -104.5 -399.5t-321.5 -155.5q-111 0 -189.5 39t-160.5 119q10 -74 10 -242v-139q0 -63 47 -64h94v-88h-479v88h90q45 0 45 66v737q0 266 -45 395q-14 41 -42 70 q-20 21 -42 21q-8 0 -16 -2l-29 -11zM416 770q0 -2 3 -24.5t7 -60.5t4 -77v-340q141 -164 268 -164q129 0 196 106.5t67 305.5q0 440 -252 440q-92 0 -171 -61.5t-122 -124.5z" />
<glyph unicode="q" horiz-adv-x="1273" d="M98 516q0 301 127 440.5t332 139.5q225 0 371 -166q0 4 20.5 33.5t57 70.5t71.5 70l113 -107q-39 -35 -82 -108q-35 -55 -35 -223v-926q0 -66 45 -66h90v-88h-479v88h90q29 0 40 14.5t11 49.5v141l11 240q-80 -80 -159 -119t-185 -39q-158 0 -259.5 82t-140.5 200.5 t-39 272.5zM332 518q0 -414 266 -414q137 0 266 164v340q0 39 2 79t5 64.5t3 26.5l-14 21q-12 18 -15 22t-17.5 22.5t-20.5 24.5l-23 23q-16 16 -28 22l-33 17q-20 10 -38.5 14t-42.5 8t-50 4q-131 0 -195.5 -102.5t-64.5 -335.5z" />
<glyph unicode="r" horiz-adv-x="966" d="M25 999l262 103q57 -106 98 -236q135 231 365 232q78 0 131 -36t53 -93q0 -51 -31 -75t-72 -24q-59 0 -92 33q-45 45 -84 45q-121 0 -233 -223q6 -37 6 -121v-452q0 -33 9 -48.5t36 -15.5h90v-88h-475v88h90q27 0 35 15.5t8 48.5v266q0 342 -47 456q-37 86 -81 87 q-7 0 -15 -3l-31 -6z" />
<glyph unicode="s" horiz-adv-x="1036" d="M72 141q0 41 28.5 66.5t67.5 25.5q66 0 92 -49q4 -4 11.5 -16t10.5 -17.5t12 -13.5t19 -12q78 -41 201 -41q248 0 248 182q0 41 -15.5 72t-30 47t-62.5 31.5t-65.5 19.5t-88.5 17q-14 2 -21 4q-88 14 -148.5 32.5t-118.5 54.5t-87 94t-29 142q0 133 113 225.5t311 92.5 q158 0 263.5 -38t105.5 -124q0 -33 -23.5 -54.5t-58.5 -21.5q-61 0 -86 29q-6 6 -15.5 21.5t-21.5 27.5t-29 20q-45 25 -139 25q-113 0 -172 -50t-59 -120q0 -98 57 -131t244 -66q49 -8 76.5 -14t73.5 -19.5t73 -27.5t59.5 -38.5t51 -56.5t31 -77t12.5 -100q0 -90 -43 -157 t-115 -100.5t-143.5 -49t-147.5 -15.5q-188 0 -315 43t-127 137z" />
<glyph unicode="t" horiz-adv-x="921" d="M20 918v124q266 0 267 312v108h143v-405l377 12v-151l-377 6v-592q0 -55 4 -92t19.5 -74t48.5 -54.5t84 -17.5q111 0 221 115l82 -111q-127 -137 -309 -137q-213 0 -291 97.5t-78 277.5v588z" />
<glyph unicode="u" horiz-adv-x="1308" d="M51 971v88h348v-600q0 -76 3.5 -120t13.5 -93t32.5 -74t61.5 -42t96 -17q158 0 301 219q-4 68 -4 119v452q0 37 -8 52.5t-35 15.5h-90v88h344v-682q0 -104 27 -184q18 -47 94 -123l-121 -121q-137 125 -176 235q-98 -125 -194.5 -174t-215.5 -49q-170 0 -255 103.5 t-85 273.5v565q0 68 -43 68h-94z" />
<glyph unicode="v" horiz-adv-x="1132" d="M20 971v88h334v-103l213 -741q20 -70 21 -127l268 766q12 37 15 59.5t-7 40t-41 17.5h-30v88h288v-94l-372 -965h-269l-301 891q-25 80 -84 80h-35z" />
<glyph unicode="w" horiz-adv-x="1710" d="M20 971v88h322v-101l170 -743l25 -145l249 989h215l205 -846q20 -84 21 -143l219 784q16 54 16 81q0 7 -1 11q-5 25 -44 25h-33v88h275v-94l-322 -965h-278l-166 741q-14 61 -14 142l-213 -883h-283l-242 891q-23 80 -80 80h-41z" />
<glyph unicode="x" horiz-adv-x="1173" d="M47 0v88h31q43 0 67 35l308 416l-246 374q-4 6 -11.5 16.5t-10.5 14.5t-9 10.5t-11 9.5t-14.5 5t-19.5 2h-39v88h338v-105l141 -270q12 -25 19.5 -43t7.5 -27v-6q152 229 223 340v111h281v-88h-35q-33 0 -59 -39l-285 -389l272 -393q2 -2 9.5 -13.5t9.5 -13.5t8 -10.5 t10 -11.5t11.5 -7t14.5 -5t15 -1h37v-88h-324v104l-176 273q-14 23 -24.5 45t-12.5 35l-2 12l-233 -358v-111h-291z" />
<glyph unicode="y" horiz-adv-x="1191" d="M12 -311q4 29 27.5 49t58.5 20q59 0 84 -51q20 -45 86 -45t112 60.5t93 166.5l53 121l-376 883q-16 41 -34 59.5t-50 18.5h-39v88h333v-101l234 -593q29 -86 29 -150q14 68 53 152l231 505q10 23 13.5 43.5t-9 38t-43.5 17.5h-39v88h310v-90l-521 -1112 q-143 -309 -385 -310q-100 0 -162.5 41.5t-58.5 100.5z" />
<glyph unicode="z" horiz-adv-x="1019" d="M84 0v125l565 743q72 94 113 105h-334q-41 0 -70.5 -5t-63.5 -20.5t-51.5 -52.5t-17.5 -92h-106v256h794v-135l-516 -707q-53 -72 -137 -123h361q45 0 70.5 3t60 18.5t51 52.5t16.5 96v4h113v-268h-848z" />
<glyph unicode="{" horiz-adv-x="780" d="M127 535v92h100q47 0 47 59v385q0 393 416 393h41v-104h-24q-129 0 -177.5 -73t-48.5 -216v-309q0 -41 -12 -73t-29.5 -48t-37 -26.5t-31 -12.5t-17.5 -2h-22v-37h22q6 0 16.5 -2t31 -11t38 -25.5t29.5 -49.5t12 -76v-307q0 -139 46 -215t180 -76h24v-102h-41 q-416 0 -416 393v383q0 59 -47 60h-100z" />
<glyph unicode="|" horiz-adv-x="438" d="M152 -453v2046h135v-2046h-135z" />
<glyph unicode="}" horiz-adv-x="778" d="M47 -199h25q133 0 179 76t46 215v307q0 43 12.5 76t29.5 49.5t37.5 25.5t31 11t16.5 2h22v37h-22q-6 0 -17.5 2t-31 12.5t-36.5 26.5t-29.5 48t-12.5 73v309q0 143 -48 216t-177 73h-25v104h41q416 0 416 -393v-385q0 -59 47 -59h100v-92h-100q-47 0 -47 -60v-383 q0 -393 -416 -393h-41v102z" />
<glyph unicode="~" horiz-adv-x="1163" d="M131 1421q47 78 122 121t124 47l51 6q123 0 268 -106q90 -66 127 -66q74 0 129 84l80 -82q-39 -59 -99.5 -92t-101.5 -37l-40 -4q-88 -2 -199 76q-127 82 -203 82q-10 0 -28.5 -3t-66.5 -30.5t-85 -77.5z" />
<glyph unicode="&#xa1;" horiz-adv-x="481" d="M98 1104q0 55 38 88t103.5 33t101.5 -33t36 -88q0 -53 -38 -88t-99.5 -35t-101.5 35t-40 88zM106 -119q0 123 35 455q39 389 39 477h117q0 -125 41 -485q35 -330 35 -447q0 -109 -30 -153.5t-105 -44.5q-74 0 -103 44.5t-29 153.5z" />
<glyph unicode="&#xa2;" horiz-adv-x="1069" d="M96 528q0 229 110.5 379t305.5 180l-16 279h172l-15 -270q147 -8 235.5 -63.5t88.5 -145.5q0 -33 -24.5 -57.5t-61.5 -24.5q-61 0 -82 33q-6 8 -23.5 44t-31.5 46q-49 39 -146 39q-131 0 -205.5 -109.5t-74.5 -329.5q0 -215 77.5 -327.5t210.5 -112.5q168 0 302 137 l88 -112q-53 -59 -141.5 -97.5t-149.5 -44.5l-62 -8q10 -178 15 -264h-172l16 270q-145 23 -242.5 111t-135.5 200.5t-38 247.5z" />
<glyph unicode="&#xa3;" horiz-adv-x="1419" d="M131 66q156 25 188 374l7 127v115l-174 -10v137l174 -8q-6 197 -9 311q-2 168 125 295q100 94 320 94q31 0 79 -5t157.5 -41t170.5 -93v-238h-145q-8 117 -73.5 185.5t-172.5 68.5q-109 0 -178 -65q-51 -57 -51 -223l6 -289l475 12v-149l-467 18v-176q0 -150 -133 -336 q160 61 262 61q137 0 262 -53q82 -33 129 -33q76 0 121 86l90 -38q-29 -104 -103.5 -168t-178.5 -64q-57 0 -168 41q-141 55 -279 55q-209 0 -387 -96q-35 72 -47 105z" />
<glyph unicode="&#xa4;" horiz-adv-x="1136" d="M-6 250l211 156q-72 106 -72 262q0 154 74 262l-213 155l133 134l160 -203q113 88 278 88q164 0 281 -84l158 199l133 -134l-209 -153q76 -106 76 -264q0 -160 -76 -267l209 -151l-133 -133l-160 198q-111 -82 -279 -82q-166 0 -278 84l-160 -200zM338 667.5 q0 -141.5 47 -223.5t180 -82q137 0 185.5 82t48.5 223.5t-48.5 223.5t-185.5 82q-133 0 -180 -82t-47 -223.5z" />
<glyph unicode="&#xa5;" horiz-adv-x="1439" d="M41 1374v88h369v-110l290 -543q29 -53 54 -135l315 631q37 70 -33 69h-67v88h403v-88h-53q-33 0 -64 -59l-381 -705h377v-127l-407 19v-350q0 -33 10 -48.5t41 -15.5h139v-88h-612v88h139q31 0 40 15.5t9 48.5v350q-444 -18 -450 -19v127h413l-401 705q-33 59 -66 59h-65 z" />
<glyph unicode="&#xa6;" horiz-adv-x="438" d="M152 389h135v-844h-135v844zM152 750v843h135v-843h-135z" />
<glyph unicode="&#xa7;" horiz-adv-x="1202" d="M20 526q0 205 187 310q-96 47 -141.5 112.5t-45.5 173.5q0 168 132.5 273.5t345.5 105.5h27q17 0 69.5 -6t100.5 -18.5t110.5 -40t109.5 -68.5v-209h-131q-6 86 -70.5 154.5t-209.5 68.5q-106 0 -186 -49t-80 -168q0 -80 78.5 -134t252.5 -95q231 -59 327.5 -134 t96.5 -239q0 -203 -178 -305q92 -45 135 -113.5t43 -177.5q0 -174 -134 -277.5t-390 -103.5q-31 0 -81 5.5t-170 43t-193 103.5v227h131q2 -37 18 -76t50 -80.5t98.5 -68.5t152.5 -27q131 0 214 55.5t83 163.5q0 37 -9 67t-37 52.5t-47.5 35.5t-71.5 29.5t-74.5 22.5 t-90.5 23q-231 63 -326.5 135.5t-95.5 228.5zM238 569q0 -80 78.5 -134t252.5 -95l43 -12q160 51 160 200q0 37 -9 67t-37 52.5t-47.5 35.5t-71.5 29.5t-74.5 22.5t-90.5 23q-33 6 -51 14q-153 -47 -153 -203z" />
<glyph unicode="&#xa8;" horiz-adv-x="1228" d="M209 1396.5q0 59.5 35 92.5t96 33q59 0 97 -35t38 -90q0 -57 -38 -92t-97 -35t-95 33.5t-36 93zM750 1399q0 59 36.5 93t96.5 34q61 0 98 -35t37 -92q0 -53 -38 -89t-97.5 -36t-96 34t-36.5 91z" />
<glyph unicode="&#xa9;" horiz-adv-x="1804" d="M131 729q0 354 210 563t560 209t560 -209t210 -563q0 -350 -210 -560t-560 -210t-560 210t-210 560zM276 729q0 -135 37 -253t110 -214t195.5 -151.5t282.5 -55.5q162 0 285 55.5t195.5 151.5t108.5 214t36 253t-36 253t-108.5 214t-195.5 151.5t-285 55.5 q-160 0 -282.5 -55.5t-195.5 -151.5t-110 -214t-37 -253zM514 729q0 231 119 347t299 116q23 0 59.5 -2t117.5 -23.5t124 -60.5v-152h-80q0 12 -8 33t-26.5 48.5t-63.5 47t-107 19.5q-129 0 -200.5 -92t-71.5 -281q0 -369 268 -369q147 0 244 132l69 -52 q-59 -88 -133.5 -130t-191.5 -42q-184 0 -301 114t-117 347z" />
<glyph unicode="&#xaa;" horiz-adv-x="839" d="M68 1018q0 115 80.5 177t220.5 62q49 0 93 -7t64 -13l21 -8l6 6q-12 27 -12 88v57q0 82 -29 112t-109 30q-113 0 -137 -43q-2 -4 -11 -28t-23.5 -35t-45 -11t-51 21.5t-20.5 52.5q0 59 58 95t117.5 44t127.5 8q90 0 147.5 -20.5t83 -61.5t32.5 -79t7 -95v-313 q0 -33 7 -61.5t20.5 -51t24 -35t27.5 -29t19 -18.5l-90 -92q-51 35 -77.5 78t-26.5 74l-8 4q-29 -66 -107 -109t-147 -43q-59 0 -113.5 17.5t-101.5 76t-47 150.5zM225 1014q0 -61 42 -92t85 -31q57 0 114.5 24.5t82.5 63.5q-8 70 -8 108v74q-86 8 -127 8q-189 1 -189 -155z " />
<glyph unicode="&#xab;" horiz-adv-x="1245" d="M66 432v195l499 428l88 -92l-331 -369q-33 -41 -66 -53v-23q14 -6 30.5 -19.5t24.5 -23.5l11 -10l331 -371l-88 -90zM584 506v47l497 422l88 -88l-264 -291q-31 -43 -74 -55v-23q18 -6 37 -19.5t29 -23.5l8 -10l264 -295l-88 -88z" />
<glyph unicode="&#xac;" horiz-adv-x="1212" d="M133 711v120h946v-532h-143v412h-803z" />
<glyph unicode="&#xad;" horiz-adv-x="1067" d="M66 711v120h946v-118z" />
<glyph unicode="&#xae;" horiz-adv-x="1804" d="M131 729q0 354 210 563t560 209t560 -209t210 -563q0 -350 -210 -560t-560 -210t-560 210t-210 560zM276 729q0 -135 37 -253t110 -214t195.5 -151.5t282.5 -55.5q162 0 285 55.5t195.5 151.5t108.5 214t36 253t-36 253t-108.5 214t-195.5 151.5t-285 55.5 q-160 0 -282.5 -55.5t-195.5 -151.5t-110 -214t-37 -253zM530 1104v65q37 0 135.5 3.5t188.5 3.5h18q61 0 96.5 -1t92.5 -14.5t89 -39t57.5 -77t25.5 -124.5q0 -100 -75 -155.5t-179 -51.5l2 -19q37 6 67.5 3t51.5 -9l20 -8q55 -23 78 -90q18 -53 33.5 -108.5t23 -78 t17.5 -30.5q23 -14 57 6l33 -57q-45 -53 -131 -54q-66 0 -97.5 57.5t-64.5 188.5q-29 106 -70 136t-131 30h-54q-24 0 -37 -1t-15 -1v-320h78v-65h-305v65h83v746h-88zM750 1085q6 -12 9 -34.5t3 -38.5v-15v-233h125q109 0 149.5 37t40.5 133q0 88 -45 129t-149 33 q-63 -1 -133 -11z" />
<glyph unicode="&#xaf;" horiz-adv-x="1228" d="M342 1276v145h545v-145h-545z" />
<glyph unicode="&#xb0;" horiz-adv-x="1032" d="M131 1077q0 176 105.5 280.5t277.5 104.5q176 0 281.5 -104.5t105.5 -280.5q0 -178 -104.5 -281.5t-282.5 -103.5q-174 0 -278.5 103.5t-104.5 281.5zM266 1077q0 -115 62.5 -192.5t185.5 -77.5q125 0 188.5 78t63.5 192q0 113 -63.5 191t-188.5 78q-123 0 -185.5 -78 t-62.5 -191z" />
<glyph unicode="&#xb1;" horiz-adv-x="1019" d="M115 618v166h241q53 0 80 -14l6 10q-6 8 -10 27.5t-4 36.5v14v248h166v-248q0 -61 -16 -78l6 -10q12 6 31.5 10t33.5 4h15h241v-166h-241q-53 0 -80 13l-6 -6q16 -18 16 -80v-248h-166v248q0 61 14 80l-6 6q-12 -6 -31.5 -9.5t-33.5 -3.5h-15h-241zM233 0v164h545v-164 h-545z" />
<glyph unicode="&#xb2;" horiz-adv-x="1271" d="M139 403v164q709 399 709 629q0 90 -63.5 140t-163.5 50q-143 0 -238 -81q-12 -10 -31.5 -39t-41 -43.5t-54.5 -14.5q-80 0 -80 84q0 98 141.5 151.5t344.5 53.5q104 0 196 -27.5t159.5 -99.5t67.5 -178q0 -121 -79.5 -210t-223.5 -181q-133 -86 -352 -205 q-49 -27 -164 -76l4 -8q57 12 136 14l473 19q133 10 143 127h106v-269h-989z" />
<glyph unicode="&#xb3;" horiz-adv-x="1271" d="M160 522q0 35 25.5 58.5t60.5 23.5q53 0 102 -53q29 -27 87.5 -48.5t119.5 -21.5q332 0 332 213q0 178 -228 178q-47 0 -109.5 -11t-98.5 -11q-100 0 -111 78q-2 45 26.5 64.5t69.5 23.5q2 0 48 -1t89 3q49 4 76 8t70 17.5t65.5 32t38 54t11.5 82.5q-8 84 -72 129 t-158 45q-154 0 -239 -83q-55 -55 -84 -64q-16 -4 -37 -4q-43 0 -62.5 22.5t-19.5 49.5q0 92 144.5 141t320.5 49q229 0 333.5 -82t104.5 -192q0 -74 -43 -127.5t-113.5 -79t-136 -37.5t-135.5 -14l8 -29q49 12 172 12q293 0 293 -262q0 -51 -22.5 -101t-78 -101.5t-168 -83 t-270.5 -31.5q-403 -1 -411 153z" />
<glyph unicode="&#xb4;" horiz-adv-x="1228" d="M475 1444l184 295h287q20 0 4 -13l-383 -282h-92z" />
<glyph unicode="&#xb5;" horiz-adv-x="1308" d="M51 971v88h348v-600q0 -76 3.5 -120t13.5 -93t32.5 -74t61.5 -42t96 -17q158 0 301 219q-4 68 -4 119v452q0 37 -8 52.5t-35 15.5h-90v88h344v-682q0 -104 27 -184q18 -47 94 -123l-121 -121q-137 125 -176 235q-98 -125 -194.5 -174t-215.5 -49q-115 0 -194 51 q78 -207 78 -350q0 -49 -23.5 -91t-75.5 -42q-63 0 -90.5 30.5t-27.5 135.5l-7 1208q0 68 -43 68h-94z" />
<glyph unicode="&#xb6;" horiz-adv-x="1380" d="M121 1014q0 182 128 315t372 133h518v-1792h121v-84h-330v1790h-154v-1790h-131v860l19 142l-13 10q-86 -18 -131 -18q-63 0 -102 14q-150 49 -223.5 165t-73.5 255z" />
<glyph unicode="&#xb7;" horiz-adv-x="471" d="M90 567.5q0 71.5 39 109.5t104.5 38t107.5 -40t42 -107.5t-42 -110.5t-107.5 -43t-104.5 41t-39 112.5z" />
<glyph unicode="&#xb8;" horiz-adv-x="1228" d="M451 -324q25 -6 53 -6q47 0 76.5 19.5t38 39t8.5 38.5q0 76 -72 98q45 20 88 20q53 0 93 -40t40 -97q0 -72 -56 -116t-147 -44q-74 0 -122 37v51z" />
<glyph unicode="&#xb9;" horiz-adv-x="1271" d="M188 1071v105q94 4 223.5 85.5t186.5 200.5h172v-903q0 -33 9 -47t40 -14h258v-97h-852v97h271q31 0 40 15t9 46v453q0 63 10 124.5t18 92.5l11 28l-17 9q-109 -195 -379 -195z" />
<glyph unicode="&#xba;" horiz-adv-x="909" d="M82 1198q0 70 14.5 134.5t51 135t116.5 113.5t193 43q92 0 161.5 -29.5t108.5 -74.5t63.5 -105.5t32.5 -112t8 -104.5t-8 -104.5t-32.5 -110.5t-63.5 -104t-108.5 -75t-161.5 -30q-113 0 -193 43t-116.5 113.5t-51 135t-14.5 132.5zM252 1198q0 -309 205 -309t205 309 q0 311 -205 311t-205 -311z" />
<glyph unicode="&#xbb;" horiz-adv-x="1245" d="M78 170l264 295q31 41 74 53v23q-43 12 -74 55l-264 291l88 88l498 -422v-47l-498 -424zM594 94l332 371q33 41 65 53v23q-14 6 -30.5 19t-26.5 24l-8 10l-332 369l88 92l500 -428v-195l-500 -428z" />
<glyph unicode="&#xbc;" horiz-adv-x="2867" d="M217 1225v104q94 4 223 86t187 201h172v-903q0 -33 9 -47.5t40 -14.5h258v-96h-852v96h270q31 0 40 15.5t9 46.5v452q0 63 10.5 125t18.5 90l10 31l-16 8q-109 -194 -379 -194zM879 -266l884 1857h224l-988 -1857h-120zM1642 274v91q129 172 201 290.5t142 280.5 q35 82 68.5 120t96.5 38q47 0 75 -31t28 -78q0 -180 -393 -539l-84 -65q94 12 139 12h321l91 279h108v-279l236 8v-127l-236 2l8 -122q4 -68 47 -68h133v-86h-569v90h131q43 0 47 64l6 122z" />
<glyph unicode="&#xbd;" horiz-adv-x="2867" d="M219 1225v104q94 4 223 86t187 201h172v-903q0 -33 9 -47.5t40 -14.5h258v-96h-852v96h270q31 0 40 15.5t9 46.5v452q0 63 9.5 125t19.5 90l10 31l-16 8q-109 -194 -379 -194zM879 -266l884 1857h224l-988 -1857h-120zM1776 0v164q709 399 708 629q0 90 -63.5 140 t-163.5 50q-143 0 -238 -82q-12 -10 -31.5 -38.5t-41 -43t-54.5 -14.5q-80 0 -80 84q0 98 141.5 151.5t344.5 53.5q104 0 196.5 -28t160 -99.5t67.5 -178.5q0 -121 -80 -210t-223 -181q-133 -86 -353 -204q-49 -27 -163 -76l4 -8q57 12 135 14l473 18q133 10 143 127h107 v-268h-989z" />
<glyph unicode="&#xbe;" horiz-adv-x="2867" d="M190 676q0 35 26 58.5t60 23.5q53 0 103 -53q29 -27 87 -48.5t120 -21.5q332 0 332 213q0 178 -228 178q-47 0 -109.5 -11t-99.5 -11q-100 0 -110 77q-2 45 26.5 64.5t69.5 23.5q2 0 48 -1t89 3q49 4 76 8.5t70 17.5t65.5 31.5t37.5 54.5t11 83q-8 84 -71.5 129 t-157.5 45q-154 0 -240 -84q-55 -55 -84 -63q-16 -4 -37 -4q-43 0 -62 22.5t-19 48.5q0 92 144 141.5t320 49.5q229 0 334 -82t105 -193q0 -74 -43 -127t-114 -78.5t-136.5 -38t-134.5 -14.5l8 -28q49 12 172 12q293 0 293 -262q0 -51 -22.5 -101.5t-78 -101.5t-168 -83 t-270.5 -32q-404 0 -412 154zM879 -266l884 1857h224l-988 -1857h-120zM1638 274v91q129 172 201 290.5t141 280.5q35 82 69 120t97 38q47 0 75 -31t28 -78q0 -180 -394 -539l-83 -65q94 12 139 12h321l90 279h109v-279l235 8v-127l-235 2l8 -122q4 -68 47 -68h133v-86h-569 v90h131q43 0 47 64l6 122z" />
<glyph unicode="&#xbf;" horiz-adv-x="1161" d="M68 -131q0 178 198 358q160 152 204 231t44 206h174v-60q0 -100 -41 -199.5t-155 -226.5q-158 -176 -158 -307q0 -96 71.5 -155.5t176.5 -59.5q172 0 260 74q16 14 38.5 43.5t43 42t53.5 12.5q94 0 94 -84q0 -100 -152.5 -156.5t-365.5 -56.5q-86 0 -165 16.5t-154.5 52 t-120.5 105.5t-45 164zM457 952q0 55 37.5 88t103.5 33t101.5 -32.5t35.5 -88.5q0 -53 -38 -88t-99 -35t-101 35t-40 88z" />
<glyph unicode="&#xc0;" d="M31 0v88h65q45 0 66 64l450 1310h295l430 -1319q20 -55 54 -55h79v-88h-503v88h65q35 0 48.5 20.5t4.5 49.5l-81 272h-568l-82 -272q-18 -70 47 -70h70v-88h-440zM465 1933q-16 12 4 13h287l184 -295h-92zM481 571h482l-195 658l-29 137h-6z" />
<glyph unicode="&#xc1;" d="M31 0v88h65q45 0 66 64l450 1310h295l430 -1319q20 -55 54 -55h79v-88h-503v88h65q35 0 48.5 20.5t4.5 49.5l-81 272h-568l-82 -272q-18 -70 47 -70h70v-88h-440zM481 571h482l-195 658l-29 137h-6zM559 1651l184 295h287q20 0 4 -13l-383 -282h-92z" />
<glyph unicode="&#xc2;" d="M31 0v88h65q45 0 66 64l450 1310h295l430 -1319q20 -55 54 -55h79v-88h-503v88h65q35 0 48.5 20.5t4.5 49.5l-81 272h-568l-82 -272q-18 -70 47 -70h70v-88h-440zM377 1675l252 314h245l250 -314l-53 -57l-319 254l-320 -254zM481 571h482l-195 658l-29 137h-6z" />
<glyph unicode="&#xc3;" d="M31 0v88h65q45 0 66 64l450 1310h295l430 -1319q20 -55 54 -55h79v-88h-503v88h65q35 0 48.5 20.5t4.5 49.5l-81 272h-568l-82 -272q-18 -70 47 -70h70v-88h-440zM299 1780q49 78 124 121t126 49l49 4q123 0 268 -107q90 -66 127 -65q72 0 129 84l80 -82 q-37 -59 -97.5 -92t-100.5 -37l-43 -4q-88 -2 -199 75q-127 82 -203 82q-10 0 -28.5 -3t-65.5 -30.5t-86 -76.5zM481 571h482l-195 658l-29 137h-6z" />
<glyph unicode="&#xc4;" d="M31 0v88h65q45 0 66 64l450 1310h295l430 -1319q20 -55 54 -55h79v-88h-503v88h65q35 0 48.5 20.5t4.5 49.5l-81 272h-568l-82 -272q-18 -70 47 -70h70v-88h-440zM346 1792q0 59 35 92t96 33q59 0 97 -35t38 -90q0 -57 -37.5 -92t-97 -35t-95.5 34t-36 93zM481 571h482 l-195 658l-29 137h-6zM887 1794q0 59 37 93t96 34q61 0 98 -35t37 -92q0 -53 -38 -89t-97 -36t-96 34t-37 91z" />
<glyph unicode="&#xc5;" d="M31 0v88h65q45 0 66 64l432 1259q-137 76 -137 256q0 131 80.5 211t212.5 80q133 0 212.5 -80t79.5 -211q0 -168 -122 -246l417 -1278q20 -55 54 -55h79v-88h-503v88h65q35 0 48.5 20.5t4.5 49.5l-81 272h-568l-82 -272q-18 -70 47 -70h70v-88h-440zM481 571h482 l-195 658l-29 137h-6zM598 1667q0 -72 38 -119t113.5 -47t113.5 47t38 119t-38 119t-113.5 47t-113.5 -47t-38 -119z" />
<glyph unicode="&#xc6;" horiz-adv-x="2095" d="M47 0v88h66q43 0 75 64l689 1310h1103v-340h-127q-2 63 -20 107.5t-44 69t-66 38t-72.5 16.5t-77.5 3h-328v-531l529 6v-139l-529 8v-585l354 -2q49 0 78 2t72 14t67.5 34.5t43 67.5t18.5 109v4h131v-344h-1173v88h118q31 0 40.5 15.5t9.5 48.5v290h-467l-142 -280 q-20 -43 -12 -58.5t43 -15.5h61v-88h-440zM592 582h412v819z" />
<glyph unicode="&#xc7;" horiz-adv-x="1452" d="M121 729q0 197 57.5 348.5t156.5 242.5t223 136t269 45q141 0 263 -33.5t167.5 -59.5t67.5 -46v-240h-121q-6 33 -22.5 68t-52 81t-107.5 74.5t-166 28.5q-223 0 -347 -159.5t-124 -485.5q0 -637 457 -637q250 0 418 219l100 -98q-90 -125 -214 -188.5t-319 -63.5 q-315 0 -510.5 189.5t-195.5 578.5zM666 -324q25 -6 53 -6q47 0 76.5 19.5t38 39t8.5 38.5q0 76 -72 98q45 20 88 20q53 0 93 -40t40 -97q0 -72 -56 -116t-147 -44q-74 0 -122 37v51z" />
<glyph unicode="&#xc8;" horiz-adv-x="1331" d="M72 0v88h118q31 0 40.5 15.5t9.5 48.5v1157q0 35 -9.5 50t-40.5 15h-118v88h1145v-340h-127q-2 63 -20.5 107.5t-44.5 69t-65.5 38t-72.5 16.5t-78 3h-328v-535l529 2v-131l-529 4v-581l355 -2q49 0 77.5 2t71.5 14t67.5 34.5t43 67.5t18.5 109v4h131v-344h-1173z M381 1933q-16 12 4 13h287l184 -295h-92z" />
<glyph unicode="&#xc9;" horiz-adv-x="1331" d="M72 0v88h118q31 0 40.5 15.5t9.5 48.5v1157q0 35 -9.5 50t-40.5 15h-118v88h1145v-340h-127q-2 63 -20.5 107.5t-44.5 69t-65.5 38t-72.5 16.5t-78 3h-328v-535l529 2v-131l-529 4v-581l355 -2q49 0 77.5 2t71.5 14t67.5 34.5t43 67.5t18.5 109v4h131v-344h-1173z M475 1651l184 295h287q20 0 4 -13l-383 -282h-92z" />
<glyph unicode="&#xca;" horiz-adv-x="1331" d="M72 0v88h118q31 0 40.5 15.5t9.5 48.5v1157q0 35 -9.5 50t-40.5 15h-118v88h1145v-340h-127q-2 63 -20.5 107.5t-44.5 69t-65.5 38t-72.5 16.5t-78 3h-328v-535l529 2v-131l-529 4v-581l355 -2q49 0 77.5 2t71.5 14t67.5 34.5t43 67.5t18.5 109v4h131v-344h-1173z M291 1675l252 314h245l250 -314l-53 -57l-319 254l-320 -254z" />
<glyph unicode="&#xcb;" horiz-adv-x="1331" d="M72 0v88h118q31 0 40.5 15.5t9.5 48.5v1157q0 35 -9.5 50t-40.5 15h-118v88h1145v-340h-127q-2 63 -20.5 107.5t-44.5 69t-65.5 38t-72.5 16.5t-78 3h-328v-535l529 2v-131l-529 4v-581l355 -2q49 0 77.5 2t71.5 14t67.5 34.5t43 67.5t18.5 109v4h131v-344h-1173z M260 1792q0 59 35 92t96 33q59 0 97 -35t38 -90q0 -57 -37.5 -92t-97 -35t-95.5 34t-36 93zM801 1794q0 59 36.5 93t96.5 34q61 0 98 -35t37 -92q0 -53 -38 -89t-97.5 -36t-96 34t-36.5 91z" />
<glyph unicode="&#xcc;" horiz-adv-x="763" d="M68 0v88h145q31 0 39 15.5t8 48.5v1157q0 37 -8 51t-39 14h-133v88h600v-88h-131q-47 0 -47 -65v-1157q0 -33 9 -48.5t40 -15.5h139v-88h-622zM98 1933q-16 12 4 13h287l184 -295h-92z" />
<glyph unicode="&#xcd;" horiz-adv-x="763" d="M68 0v88h145q31 0 39 15.5t8 48.5v1157q0 37 -8 51t-39 14h-133v88h600v-88h-131q-47 0 -47 -65v-1157q0 -33 9 -48.5t40 -15.5h139v-88h-622zM193 1651l184 295h287q20 0 4 -13l-383 -282h-92z" />
<glyph unicode="&#xce;" horiz-adv-x="763" d="M8 1675l252 314h246l250 -314l-54 -57l-319 254l-320 -254zM68 0v88h145q31 0 39 15.5t8 48.5v1157q0 37 -8 51t-39 14h-133v88h600v-88h-131q-47 0 -47 -65v-1157q0 -33 9 -48.5t40 -15.5h139v-88h-622z" />
<glyph unicode="&#xcf;" horiz-adv-x="763" d="M-23 1792q0 59 35 92t97 33q59 0 97 -35t38 -90q0 -57 -38 -92t-97.5 -35t-95.5 34t-36 93zM68 0v88h145q31 0 39 15.5t8 48.5v1157q0 37 -8 51t-39 14h-133v88h600v-88h-131q-47 0 -47 -65v-1157q0 -33 9 -48.5t40 -15.5h139v-88h-622zM518 1794q0 59 37 93t96 34 q61 0 98 -35t37 -92q0 -53 -37.5 -89t-97 -36t-96.5 34t-37 91z" />
<glyph unicode="&#xd0;" horiz-adv-x="1691" d="M63 672v166l265 -9v465q0 53 -47 54h-121v114q100 0 310 8.5t312 8.5q133 0 235.5 -14.5t209 -61.5t176.5 -126t114 -215t44 -321q0 -180 -36 -313t-98.5 -216t-159 -133t-201.5 -68.5t-243 -18.5q-109 0 -334 4t-337 4v111h129q47 0 47 53v518zM569 143q25 -12 265 -12 q137 0 230 47t142 135t68.5 190.5t19.5 237.5q0 133 -19.5 233.5t-68.5 187.5t-142 133t-230 46l-265 -16v-496l301 9v-166l-301 10v-539z" />
<glyph unicode="&#xd1;" horiz-adv-x="1685" d="M80 0v88h113q31 0 39 14.5t8 49.5v1157q0 37 -8.5 51t-38.5 14h-113v88h483l578 -958q102 -174 139 -283v1088q0 35 -10 50t-43 15h-94v88h477v-88h-105q-31 0 -40 -14t-9 -51v-1309h-248l-684 1112q-29 47 -53.5 100.5t-34.5 81.5l-10 31l-4 -1171q0 -35 9 -50.5 t38 -15.5h82v-88h-471zM391 1780q49 78 124 121t124 49l51 4q123 0 268 -107q90 -66 127 -65q72 0 129 84l80 -82q-37 -59 -97 -92t-103 -37l-41 -4q-88 -2 -199 75q-127 82 -203 82q-10 0 -28.5 -3t-65.5 -30.5t-86 -76.5z" />
<glyph unicode="&#xd2;" horiz-adv-x="1632" d="M131 729q0 395 187.5 583.5t498.5 188.5q309 0 496.5 -188.5t187.5 -583.5q0 -391 -187.5 -579.5t-496.5 -188.5q-311 0 -498.5 188.5t-187.5 579.5zM397 729q0 -186 33 -315t93.5 -196.5t131 -96.5t162.5 -29q72 0 130.5 16.5t113.5 60.5t93 113.5t60.5 183.5t22.5 263 q0 188 -33 319.5t-94 199t-131 96t-162 28.5t-162.5 -28.5t-131 -97t-93.5 -199t-33 -318.5zM530 1933q-16 12 5 13h286l185 -295h-93z" />
<glyph unicode="&#xd3;" horiz-adv-x="1632" d="M131 729q0 395 187.5 583.5t498.5 188.5q309 0 496.5 -188.5t187.5 -583.5q0 -391 -187.5 -579.5t-496.5 -188.5q-311 0 -498.5 188.5t-187.5 579.5zM397 729q0 -186 33 -315t93.5 -196.5t131 -96.5t162.5 -29q72 0 130.5 16.5t113.5 60.5t93 113.5t60.5 183.5t22.5 263 q0 188 -33 319.5t-94 199t-131 96t-162 28.5t-162.5 -28.5t-131 -97t-93.5 -199t-33 -318.5zM625 1651l184 295h287q20 0 4 -13l-383 -282h-92z" />
<glyph unicode="&#xd4;" horiz-adv-x="1632" d="M131 729q0 395 187.5 583.5t498.5 188.5q309 0 496.5 -188.5t187.5 -583.5q0 -391 -187.5 -579.5t-496.5 -188.5q-311 0 -498.5 188.5t-187.5 579.5zM397 729q0 -186 33 -315t93.5 -196.5t131 -96.5t162.5 -29q72 0 130.5 16.5t113.5 60.5t93 113.5t60.5 183.5t22.5 263 q0 188 -33 319.5t-94 199t-131 96t-162 28.5t-162.5 -28.5t-131 -97t-93.5 -199t-33 -318.5zM442 1675l252 314h246l250 -314l-53 -57l-320 254l-319 -254z" />
<glyph unicode="&#xd5;" horiz-adv-x="1632" d="M131 729q0 395 187.5 583.5t498.5 188.5q309 0 496.5 -188.5t187.5 -583.5q0 -391 -187.5 -579.5t-496.5 -188.5q-311 0 -498.5 188.5t-187.5 579.5zM365 1780q49 78 123.5 121t125.5 49l50 4q123 0 268 -107q90 -66 127 -65q72 0 129 84l80 -82q-37 -59 -97.5 -92 t-101.5 -37l-43 -4q-88 -2 -199 75q-127 82 -202 82q-10 0 -28.5 -3t-66 -30.5t-86.5 -76.5zM397 729q0 -186 33 -315t93.5 -196.5t131 -96.5t162.5 -29q72 0 130.5 16.5t113.5 60.5t93 113.5t60.5 183.5t22.5 263q0 188 -33 319.5t-94 199t-131 96t-162 28.5t-162.5 -28.5 t-131 -97t-93.5 -199t-33 -318.5z" />
<glyph unicode="&#xd6;" horiz-adv-x="1632" d="M131 729q0 395 187.5 583.5t498.5 188.5q309 0 496.5 -188.5t187.5 -583.5q0 -391 -187.5 -579.5t-496.5 -188.5q-311 0 -498.5 188.5t-187.5 579.5zM397 729q0 -186 33 -315t93.5 -196.5t131 -96.5t162.5 -29q72 0 130.5 16.5t113.5 60.5t93 113.5t60.5 183.5t22.5 263 q0 188 -33 319.5t-94 199t-131 96t-162 28.5t-162.5 -28.5t-131 -97t-93.5 -199t-33 -318.5zM412 1792q0 59 34.5 92t96.5 33q59 0 97 -35t38 -90q0 -57 -38 -92t-97.5 -35t-95 34t-35.5 93zM952 1794q0 59 37 93t96 34q61 0 98.5 -35t37.5 -92q0 -53 -38 -89t-97.5 -36 t-96.5 34t-37 91z" />
<glyph unicode="&#xd7;" horiz-adv-x="1069" d="M131 117l238 235q41 43 63 43l2 13q-14 4 -30.5 16t-26.5 22l-8 9l-238 237l115 117l237 -238q41 -37 47 -67l13 2q0 10 11 27.5t21 27.5l11 12q45 43 233 234l119 -119l-231 -231q-45 -45 -70 -45v-11q27 -10 68 -47l227 -233l-113 -115l-235 230q-35 39 -45 67l-13 -2 q0 -10 -11 -26.5t-21 -28.5l-11 -13l-237 -233z" />
<glyph unicode="&#xd8;" horiz-adv-x="1611" d="M131 729q0 395 184.5 583.5t491.5 188.5q150 0 264 -41l148 307l151 -73l-160 -305q272 -188 273 -660q0 -391 -185.5 -579.5t-490.5 -188.5q-180 0 -307 59l-164 -317l-92 47l157 328q-270 186 -270 651zM397 729q0 -305 99 -461l499 1039q-78 43 -188 43 q-90 0 -158.5 -28t-128 -94.5t-91.5 -192.5t-32 -306zM580 178q88 -63 227 -63q88 0 157.5 27.5t129 93t92.5 190.5t33 303q0 317 -107 473z" />
<glyph unicode="&#xd9;" horiz-adv-x="1570" d="M51 1374v88h563v-88h-100q-31 0 -39 -14t-8 -51v-688q0 -84 2 -138.5t10 -116t23.5 -98.5t41 -74.5t64.5 -57t94.5 -32t126.5 -12.5q90 0 152.5 27.5t97.5 69.5t53.5 118t23.5 145.5t5 178.5v678q0 35 -10 50t-41 15h-98v88h508v-88h-119q-29 0 -39 -15.5t-10 -49.5v-684 q0 -113 -8.5 -196t-40 -176t-88 -152.5t-158 -99.5t-242.5 -40q-160 0 -273.5 38t-175 95.5t-96 151.5t-43 176t-8.5 201v686q0 35 -10 50t-41 15h-117zM551 1933q-16 12 4 13h287l184 -295h-92z" />
<glyph unicode="&#xda;" horiz-adv-x="1570" d="M51 1374v88h563v-88h-100q-31 0 -39 -14t-8 -51v-688q0 -84 2 -138.5t10 -116t23.5 -98.5t41 -74.5t64.5 -57t94.5 -32t126.5 -12.5q90 0 152.5 27.5t97.5 69.5t53.5 118t23.5 145.5t5 178.5v678q0 35 -10 50t-41 15h-98v88h508v-88h-119q-29 0 -39 -15.5t-10 -49.5v-684 q0 -113 -8.5 -196t-40 -176t-88 -152.5t-158 -99.5t-242.5 -40q-160 0 -273.5 38t-175 95.5t-96 151.5t-43 176t-8.5 201v686q0 35 -10 50t-41 15h-117zM594 1651l184 295h287q20 0 4 -13l-383 -282h-92z" />
<glyph unicode="&#xdb;" horiz-adv-x="1570" d="M51 1374v88h563v-88h-100q-31 0 -39 -14t-8 -51v-688q0 -84 2 -138.5t10 -116t23.5 -98.5t41 -74.5t64.5 -57t94.5 -32t126.5 -12.5q90 0 152.5 27.5t97.5 69.5t53.5 118t23.5 145.5t5 178.5v678q0 35 -10 50t-41 15h-98v88h508v-88h-119q-29 0 -39 -15.5t-10 -49.5v-684 q0 -113 -8.5 -196t-40 -176t-88 -152.5t-158 -99.5t-242.5 -40q-160 0 -273.5 38t-175 95.5t-96 151.5t-43 176t-8.5 201v686q0 35 -10 50t-41 15h-117zM459 1675l252 314h245l250 -314l-53 -57l-319 254l-320 -254z" />
<glyph unicode="&#xdc;" horiz-adv-x="1570" d="M51 1374v88h563v-88h-100q-31 0 -39 -14t-8 -51v-688q0 -84 2 -138.5t10 -116t23.5 -98.5t41 -74.5t64.5 -57t94.5 -32t126.5 -12.5q90 0 152.5 27.5t97.5 69.5t53.5 118t23.5 145.5t5 178.5v678q0 35 -10 50t-41 15h-98v88h508v-88h-119q-29 0 -39 -15.5t-10 -49.5v-684 q0 -113 -8.5 -196t-40 -176t-88 -152.5t-158 -99.5t-242.5 -40q-160 0 -273.5 38t-175 95.5t-96 151.5t-43 176t-8.5 201v686q0 35 -10 50t-41 15h-117zM432 1792q0 59 35 92t96 33q59 0 97 -35t38 -90q0 -57 -37.5 -92t-97 -35t-95.5 34t-36 93zM973 1794q0 59 37 93t96 34 q61 0 98 -35t37 -92q0 -53 -38 -89t-97 -36t-96 34t-37 91z" />
<glyph unicode="&#xdd;" horiz-adv-x="1392" d="M31 1374v88h368v-110l291 -543q29 -53 53 -135l316 631q37 70 -33 69h-68v88h404v-88h-53q-33 0 -64 -59l-411 -762v-401q0 -33 10 -48.5t41 -15.5h139v-88h-612v88h139q31 0 40 15.5t9 48.5v393l-438 770q-33 59 -66 59h-65zM455 1651l184 295h287q20 0 4 -13l-383 -282 h-92z" />
<glyph unicode="&#xde;" horiz-adv-x="1411" d="M72 0v88h143q29 0 36 12.5t7 40.5v1180q0 29 -7 41t-36 12h-133v88h600v-88h-133q-41 0 -41 -53v-152q74 12 154 13h93q30 0 93 -4t97 -11.5t88 -23t85 -37t69 -55t57.5 -76.5t33.5 -103.5t14 -134.5q0 -131 -44 -219t-127 -132t-175 -60.5t-217 -16.5l-219 23v-191 q0 -29 8 -41t35 -12h143v-88h-624zM510 442q125 -4 209 -6q178 -2 248.5 74t70.5 250q0 152 -77.5 228.5t-249.5 74.5l-201 -10v-611z" />
<glyph unicode="&#xdf;" horiz-adv-x="1353" d="M43 0v86h135v1094q0 412 436 411q426 0 426 -276q0 -125 -94 -223q-20 -23 -69.5 -55.5t-85 -67.5t-48.5 -78q-18 -70 46.5 -125t236.5 -139q160 -78 207 -144.5t47 -181.5q0 -154 -120 -241t-292 -87q-254 0 -342 60v231h101q0 -20 12 -48t25 -46l14 -18 q45 -47 85 -63.5t97 -16.5q96 0 147.5 50t51.5 138q0 92 -39 140.5t-160 103.5q-168 74 -227.5 137.5t-59.5 177.5q0 31 6.5 57.5t29 56.5t29.5 39t45 46t40 39q70 57 96.5 105t26.5 122q0 98 -61.5 151.5t-151.5 53.5q-143 0 -194.5 -77t-51.5 -232v-1180h-344z" />
<glyph unicode="&#xe0;" horiz-adv-x="1105" d="M78 281q0 150 108.5 232.5t298.5 82.5l238 -14v194q0 119 -38 162t-148 43q-176 0 -203 -94q-18 -63 -96 -64q-41 0 -69 25.5t-28 60.5q0 57 43 98.5t114 58.5t131 24.5t126 7.5q100 0 171 -20.5t109.5 -49.5t60.5 -78t27 -90t5 -100v-426q0 -70 21.5 -126t42 -80 t59.5 -60l-117 -113q-90 55 -148 170q-127 -164 -352 -164q-45 0 -90 8t-94 29.5t-86 55.5t-61.5 92.5t-24.5 134.5zM268 1538q-16 12 4 12h287l184 -295h-92zM291 276q0 -92 58.5 -137t117.5 -45q82 0 153.5 40t110.5 104q-8 86 -8 139v110q-119 10 -174 11 q-258 -1 -258 -222z" />
<glyph unicode="&#xe1;" horiz-adv-x="1105" d="M78 281q0 150 108.5 232.5t298.5 82.5l238 -14v194q0 119 -38 162t-148 43q-176 0 -203 -94q-18 -63 -96 -64q-41 0 -69 25.5t-28 60.5q0 57 43 98.5t114 58.5t131 24.5t126 7.5q100 0 171 -20.5t109.5 -49.5t60.5 -78t27 -90t5 -100v-426q0 -70 21.5 -126t42 -80 t59.5 -60l-117 -113q-90 55 -148 170q-127 -164 -352 -164q-45 0 -90 8t-94 29.5t-86 55.5t-61.5 92.5t-24.5 134.5zM291 276q0 -92 58.5 -137t117.5 -45q82 0 153.5 40t110.5 104q-8 86 -8 139v110q-119 10 -174 11q-258 -1 -258 -222zM414 1255l184 295h287q20 0 4 -12 l-383 -283h-92z" />
<glyph unicode="&#xe2;" horiz-adv-x="1105" d="M78 281q0 150 108.5 232.5t298.5 82.5l238 -14v194q0 119 -38 162t-148 43q-176 0 -203 -94q-18 -63 -96 -64q-41 0 -69 25.5t-28 60.5q0 57 43 98.5t114 58.5t131 24.5t126 7.5q100 0 171 -20.5t109.5 -49.5t60.5 -78t27 -90t5 -100v-426q0 -70 21.5 -126t42 -80 t59.5 -60l-117 -113q-90 55 -148 170q-127 -164 -352 -164q-45 0 -90 8t-94 29.5t-86 55.5t-61.5 92.5t-24.5 134.5zM180 1280l252 313h246l250 -313l-54 -57l-319 254l-319 -254zM291 276q0 -92 58.5 -137t117.5 -45q82 0 153.5 40t110.5 104q-8 86 -8 139v110 q-119 10 -174 11q-258 -1 -258 -222z" />
<glyph unicode="&#xe3;" horiz-adv-x="1105" d="M78 281q0 150 108.5 232.5t298.5 82.5l238 -14v194q0 119 -38 162t-148 43q-176 0 -203 -94q-18 -63 -96 -64q-41 0 -69 25.5t-28 60.5q0 57 43 98.5t114 58.5t131 24.5t126 7.5q100 0 171 -20.5t109.5 -49.5t60.5 -78t27 -90t5 -100v-426q0 -70 21.5 -126t42 -80 t59.5 -60l-117 -113q-90 55 -148 170q-127 -164 -352 -164q-45 0 -90 8t-94 29.5t-86 55.5t-61.5 92.5t-24.5 134.5zM102 1384q49 78 124 121t126 47l49 7q123 0 269 -107q90 -66 127 -66q72 0 129 84l80 -81q-37 -59 -97.5 -92t-101.5 -37l-43 -5q-88 -2 -199 76 q-127 82 -203 82q-10 0 -28.5 -3t-65.5 -30.5t-86 -76.5zM291 276q0 -92 58.5 -137t117.5 -45q82 0 153.5 40t110.5 104q-8 86 -8 139v110q-119 10 -174 11q-258 -1 -258 -222z" />
<glyph unicode="&#xe4;" horiz-adv-x="1105" d="M78 281q0 150 108.5 232.5t298.5 82.5l238 -14v194q0 119 -38 162t-148 43q-176 0 -203 -94q-18 -63 -96 -64q-41 0 -69 25.5t-28 60.5q0 57 43 98.5t114 58.5t131 24.5t126 7.5q100 0 171 -20.5t109.5 -49.5t60.5 -78t27 -90t5 -100v-426q0 -70 21.5 -126t42 -80 t59.5 -60l-117 -113q-90 55 -148 170q-127 -164 -352 -164q-45 0 -90 8t-94 29.5t-86 55.5t-61.5 92.5t-24.5 134.5zM150 1396.5q0 59.5 34.5 92.5t96.5 33q59 0 97 -35t38 -90q0 -57 -38 -92t-97.5 -35t-95 33.5t-35.5 93zM291 276q0 -92 58.5 -137t117.5 -45 q82 0 153.5 40t110.5 104q-8 86 -8 139v110q-119 10 -174 11q-258 -1 -258 -222zM690 1399q0 59 37 93t96 34q61 0 98 -35t37 -92q0 -53 -37.5 -89t-97 -36t-96.5 34t-37 91z" />
<glyph unicode="&#xe5;" horiz-adv-x="1105" d="M78 281q0 150 108.5 232.5t298.5 82.5l238 -14v194q0 109 -35 153t-135 50h-12q-41 0 -63.5 -2t-57.5 -9t-56.5 -27.5t-29.5 -53.5q-18 -63 -96 -64q-41 0 -69 25.5t-28 60.5q0 119 187 164q-68 80 -68 199q0 131 81 211t212 80q133 0 213 -80t80 -211q0 -127 -76 -209 q96 -39 127 -115t31 -188v-426q0 -70 21.5 -126t42 -80t59.5 -60l-117 -113q-90 55 -148 170q-127 -164 -352 -164q-45 0 -90 8t-94 29.5t-86 55.5t-61.5 92.5t-24.5 134.5zM291 276q0 -92 58.5 -137t117.5 -45q82 0 153.5 40t110.5 104q-8 86 -8 139v110q-119 10 -174 11 q-258 -1 -258 -222zM401 1271.5q0 -71.5 38 -118.5t114 -47t114 47t38 118.5t-38 119t-114 47.5t-114 -47.5t-38 -119z" />
<glyph unicode="&#xe6;" horiz-adv-x="1748" d="M78 281q0 150 108.5 232.5t298.5 82.5l238 -12v215q0 106 -46 144t-136 38q-150 0 -189 -57q-8 -14 -19 -38t-17.5 -34t-26 -19.5t-51.5 -9.5q-43 0 -73 25.5t-26 60.5q12 188 424 189q211 0 307 -135v-2q123 137 340 137q440 0 441 -535q0 -27 -8.5 -37t-30.5 -10h-678 v-12q0 -195 74.5 -303.5t228.5 -108.5q174 0 319 123l74 -109q-164 -145 -399 -145q-307 0 -426 195v2q-57 -100 -158.5 -148.5t-214.5 -48.5q-59 0 -115.5 14.5t-113 46t-91 99.5t-34.5 160zM291 276q0 -92 57.5 -137t118.5 -45q193 0 283 180q-27 84 -27 197v12 q-119 6 -176 6q-256 0 -256 -213zM942 621h498v12q0 344 -230 344q-152 0 -210 -90t-58 -254v-12z" />
<glyph unicode="&#xe7;" horiz-adv-x="1067" d="M98 528q0 262 137.5 416t374.5 154q166 0 266.5 -56.5t100.5 -154.5q0 -33 -24.5 -57.5t-61.5 -24.5q-61 0 -86 39q-6 8 -14.5 26.5t-16.5 33t-20 24.5q-47 39 -144 39q-131 0 -205.5 -108.5t-74.5 -330.5q0 -215 77.5 -327.5t210.5 -112.5q168 0 302 137l84 -112 q-20 -23 -57.5 -50.5t-133.5 -64.5t-203 -37q-111 0 -199.5 33t-146 87t-95.5 128t-54.5 152.5t-16.5 166.5zM418 -328q25 -6 53 -6q47 0 77 19.5t38 39t8 37.5q0 76 -72 99q45 20 88 20q53 0 93 -40t40 -97q0 -72 -56 -116t-146 -44q-74 0 -123 37v51z" />
<glyph unicode="&#xe8;" horiz-adv-x="1157" d="M98 528q0 68 11.5 136.5t45 149.5t88 141.5t148.5 101.5t215 41q248 0 350.5 -142.5t102.5 -392.5q0 -27 -7.5 -37t-29.5 -10h-692v-12q0 -412 303 -412q176 0 315 121l92 -115q-6 -6 -17 -15t-50 -32.5t-83 -42t-117 -33t-150 -14.5q-127 0 -224.5 37t-153 94.5t-90 136 t-46 149t-11.5 150.5zM336 621h498v12q0 180 -51.5 262t-176.5 82q-270 0 -270 -344v-12zM344 1538q-16 12 4 12h287l184 -295h-92z" />
<glyph unicode="&#xe9;" horiz-adv-x="1157" d="M98 528q0 68 11.5 136.5t45 149.5t88 141.5t148.5 101.5t215 41q248 0 350.5 -142.5t102.5 -392.5q0 -27 -7.5 -37t-29.5 -10h-692v-12q0 -412 303 -412q176 0 315 121l92 -115q-6 -6 -17 -15t-50 -32.5t-83 -42t-117 -33t-150 -14.5q-127 0 -224.5 37t-153 94.5t-90 136 t-46 149t-11.5 150.5zM336 621h498v12q0 180 -51.5 262t-176.5 82q-270 0 -270 -344v-12zM389 1255l184 295h287q20 0 4 -12l-383 -283h-92z" />
<glyph unicode="&#xea;" horiz-adv-x="1157" d="M98 528q0 68 11.5 136.5t45 149.5t88 141.5t148.5 101.5t215 41q248 0 350.5 -142.5t102.5 -392.5q0 -27 -7.5 -37t-29.5 -10h-692v-12q0 -412 303 -412q176 0 315 121l92 -115q-6 -6 -17 -15t-50 -32.5t-83 -42t-117 -33t-150 -14.5q-127 0 -224.5 37t-153 94.5t-90 136 t-46 149t-11.5 150.5zM205 1280l252 313h245l250 -313l-53 -57l-319 254l-320 -254zM336 621h498v12q0 180 -51.5 262t-176.5 82q-270 0 -270 -344v-12z" />
<glyph unicode="&#xeb;" horiz-adv-x="1157" d="M98 528q0 68 11.5 136.5t45 149.5t88 141.5t148.5 101.5t215 41q248 0 350.5 -142.5t102.5 -392.5q0 -27 -7.5 -37t-29.5 -10h-692v-12q0 -412 303 -412q176 0 315 121l92 -115q-6 -6 -17 -15t-50 -32.5t-83 -42t-117 -33t-150 -14.5q-127 0 -224.5 37t-153 94.5t-90 136 t-46 149t-11.5 150.5zM174 1396.5q0 59.5 35 92.5t96 33q59 0 97 -35t38 -90q0 -57 -37.5 -92t-97 -35t-95.5 33.5t-36 93zM336 621h498v12q0 180 -51.5 262t-176.5 82q-270 0 -270 -344v-12zM715 1399q0 59 36.5 93t96.5 34q61 0 98 -35t37 -92q0 -53 -38 -89t-97.5 -36 t-96 34t-36.5 91z" />
<glyph unicode="&#xec;" horiz-adv-x="649" d="M41 1538q-16 12 4 12h287l184 -295h-92zM82 0v88h90q27 0 35 14.5t8 49.5v747q0 35 -8 51.5t-35 16.5h-90v92h342v-907q0 -35 8 -49.5t35 -14.5h90v-88h-475z" />
<glyph unicode="&#xed;" horiz-adv-x="649" d="M82 0v88h90q27 0 35 14.5t8 49.5v747q0 35 -8 51.5t-35 16.5h-90v92h342v-907q0 -35 8 -49.5t35 -14.5h90v-88h-475zM186 1255l185 295h286q20 0 5 -12l-383 -283h-93z" />
<glyph unicode="&#xee;" horiz-adv-x="649" d="M-49 1280l252 313h246l249 -313l-53 -57l-319 254l-320 -254zM82 0v88h90q27 0 35 14.5t8 49.5v747q0 35 -8 51.5t-35 16.5h-90v92h342v-907q0 -35 8 -49.5t35 -14.5h90v-88h-475z" />
<glyph unicode="&#xef;" horiz-adv-x="649" d="M-80 1396.5q0 59.5 35 92.5t96 33q59 0 97 -35t38 -90q0 -57 -37.5 -92t-97 -35t-95.5 33.5t-36 93zM82 0v88h90q27 0 35 14.5t8 49.5v747q0 35 -8 51.5t-35 16.5h-90v92h342v-907q0 -35 8 -49.5t35 -14.5h90v-88h-475zM461 1399q0 59 37 93t96 34q61 0 98 -35t37 -92 q0 -53 -38 -89t-97 -36t-96 34t-37 91z" />
<glyph unicode="&#xf0;" horiz-adv-x="1300" d="M104 457q0 106 42 200.5t144.5 163t250.5 68.5q143 0 252.5 -70.5t173.5 -171.5q-4 391 -99 545l-194 -145l-70 98l195 133q-96 76 -232 76q-94 -4 -125 -23q-4 -4 -21.5 -22.5t-35.5 -27.5t-47 -9q-35 0 -57.5 23.5t-22.5 60.5q0 147 311 147q223 0 371 -121l158 119 l71 -98l-151 -103q178 -219 178 -661q0 -334 -141.5 -508t-417.5 -174q-242 0 -387.5 143.5t-145.5 356.5zM332 416q0 -145 89 -227.5t216 -82.5q164 0 246 118t86 323q-49 74 -153.5 131t-203.5 57q-280 0 -280 -319z" />
<glyph unicode="&#xf1;" horiz-adv-x="1333" d="M25 999l266 101q66 -135 96 -240q100 133 197.5 185.5t220.5 52.5q141 0 241.5 -97.5t100.5 -279.5v-569q0 -33 9 -48.5t36 -15.5h90v-88h-348v600q0 74 -1 107.5t-11.5 90t-30 81t-59 46t-99.5 21.5q-160 0 -311 -225q8 -70 8 -117v-452q0 -35 9.5 -49.5t39.5 -14.5h84 v-88h-481v88h94q27 0 35 15.5t8 48.5v311q0 293 -45 405q-43 106 -94 93l-33 -9zM215 1384q49 78 124 121t124 47l51 7q123 0 268 -107q90 -66 127 -66q72 0 129 84l80 -81q-37 -59 -97 -92t-103 -37l-41 -5q-88 -2 -199 76q-127 82 -203 82q-10 0 -28.5 -3t-65.5 -30.5 t-86 -76.5z" />
<glyph unicode="&#xf2;" horiz-adv-x="1216" d="M98 528q0 72 10.5 140.5t43 149.5t86 140.5t149.5 99.5t223 40q125 0 220.5 -40t148.5 -99.5t87 -140.5t44 -149.5t10 -140t-10 -139t-44 -148.5t-87 -140.5t-148.5 -99.5t-220.5 -40q-106 0 -191 27.5t-138.5 75t-91 103.5t-57 123.5t-27 124t-7.5 113.5zM330 528 q0 -451 278 -450q276 0 277 450q0 455 -277 455q-145 0 -211.5 -114t-66.5 -341zM375 1538q-16 12 4 12h287l184 -295h-92z" />
<glyph unicode="&#xf3;" horiz-adv-x="1216" d="M98 528q0 72 10.5 140.5t43 149.5t86 140.5t149.5 99.5t223 40q125 0 220.5 -40t148.5 -99.5t87 -140.5t44 -149.5t10 -140t-10 -139t-44 -148.5t-87 -140.5t-148.5 -99.5t-220.5 -40q-106 0 -191 27.5t-138.5 75t-91 103.5t-57 123.5t-27 124t-7.5 113.5zM330 528 q0 -451 278 -450q276 0 277 450q0 455 -277 455q-145 0 -211.5 -114t-66.5 -341zM469 1255l184 295h287q20 0 4 -12l-383 -283h-92z" />
<glyph unicode="&#xf4;" horiz-adv-x="1216" d="M98 528q0 72 10.5 140.5t43 149.5t86 140.5t149.5 99.5t223 40q125 0 220.5 -40t148.5 -99.5t87 -140.5t44 -149.5t10 -140t-10 -139t-44 -148.5t-87 -140.5t-148.5 -99.5t-220.5 -40q-106 0 -191 27.5t-138.5 75t-91 103.5t-57 123.5t-27 124t-7.5 113.5zM236 1280 l251 313h246l250 -313l-53 -57l-320 254l-319 -254zM330 528q0 -451 278 -450q276 0 277 450q0 455 -277 455q-145 0 -211.5 -114t-66.5 -341z" />
<glyph unicode="&#xf5;" horiz-adv-x="1216" d="M98 528q0 72 10.5 140.5t43 149.5t86 140.5t149.5 99.5t223 40q125 0 220.5 -40t148.5 -99.5t87 -140.5t44 -149.5t10 -140t-10 -139t-44 -148.5t-87 -140.5t-148.5 -99.5t-220.5 -40q-106 0 -191 27.5t-138.5 75t-91 103.5t-57 123.5t-27 124t-7.5 113.5zM158 1384 q49 78 123.5 121t124.5 47l51 7q123 0 268 -107q90 -66 127 -66q72 0 129 84l80 -81q-37 -59 -97.5 -92t-103.5 -37l-41 -5q-88 -2 -198 76q-127 82 -203 82q-10 0 -28.5 -3t-66 -30.5t-85.5 -76.5zM330 528q0 -451 278 -450q276 0 277 450q0 455 -277 455 q-145 0 -211.5 -114t-66.5 -341z" />
<glyph unicode="&#xf6;" horiz-adv-x="1216" d="M98 528q0 72 10.5 140.5t43 149.5t86 140.5t149.5 99.5t223 40q125 0 220.5 -40t148.5 -99.5t87 -140.5t44 -149.5t10 -140t-10 -139t-44 -148.5t-87 -140.5t-148.5 -99.5t-220.5 -40q-106 0 -191 27.5t-138.5 75t-91 103.5t-57 123.5t-27 124t-7.5 113.5zM205 1396.5 q0 59.5 34.5 92.5t96.5 33q59 0 97 -35t38 -90q0 -57 -38 -92t-97.5 -35t-95 33.5t-35.5 93zM330 528q0 -451 278 -450q276 0 277 450q0 455 -277 455q-145 0 -211.5 -114t-66.5 -341zM745 1399q0 59 37 93t97 34q61 0 98 -35t37 -92q0 -53 -38 -89t-97.5 -36t-96.5 34 t-37 91z" />
<glyph unicode="&#xf7;" horiz-adv-x="1179" d="M135 422v164h907v-164h-907zM444 98q0 63 41 101.5t109 38.5t108.5 -38t40.5 -101.5t-42 -102.5t-107 -39q-68 0 -109 37.5t-41 103.5zM444 920q0 63 41 101t109 38t108.5 -38t40.5 -101.5t-42 -102.5t-107 -39q-68 0 -109 38t-41 104z" />
<glyph unicode="&#xf8;" horiz-adv-x="1208" d="M82 528q0 72 10 140.5t44 149.5t87 140.5t149.5 99.5t221.5 40q41 0 82 -6l133 411h231l-174 -471q133 -76 186.5 -216t53.5 -288q0 -70 -10.5 -138t-44 -149t-87 -140.5t-149.5 -99.5t-221 -40q-41 0 -119 12l-92 -260h-158l101 312q-135 74 -189.5 215t-54.5 288z M315 528q0 -229 68 -335l256 786q-29 4 -45 4q-145 0 -212 -114t-67 -341zM516 86q33 -8 78 -8q276 0 276 450q0 227 -65 338z" />
<glyph unicode="&#xf9;" horiz-adv-x="1308" d="M51 971v88h348v-600q0 -76 3.5 -120t13.5 -93t32.5 -74t61.5 -42t96 -17q158 0 301 219q-4 68 -4 119v452q0 37 -8 52.5t-35 15.5h-90v88h344v-682q0 -104 27 -184q18 -47 94 -123l-121 -121q-137 125 -176 235q-98 -125 -194.5 -174t-215.5 -49q-170 0 -255 103.5 t-85 273.5v565q0 68 -43 68h-94zM420 1538q-16 12 4 12h287l184 -295h-92z" />
<glyph unicode="&#xfa;" horiz-adv-x="1308" d="M51 971v88h348v-600q0 -76 3.5 -120t13.5 -93t32.5 -74t61.5 -42t96 -17q158 0 301 219q-4 68 -4 119v452q0 37 -8 52.5t-35 15.5h-90v88h344v-682q0 -104 27 -184q18 -47 94 -123l-121 -121q-137 125 -176 235q-98 -125 -194.5 -174t-215.5 -49q-170 0 -255 103.5 t-85 273.5v565q0 68 -43 68h-94zM465 1255l184 295h287q20 0 4 -12l-383 -283h-92z" />
<glyph unicode="&#xfb;" horiz-adv-x="1308" d="M51 971v88h348v-600q0 -76 3.5 -120t13.5 -93t32.5 -74t61.5 -42t96 -17q158 0 301 219q-4 68 -4 119v452q0 37 -8 52.5t-35 15.5h-90v88h344v-682q0 -104 27 -184q18 -47 94 -123l-121 -121q-137 125 -176 235q-98 -125 -194.5 -174t-215.5 -49q-170 0 -255 103.5 t-85 273.5v565q0 68 -43 68h-94zM281 1280l251 313h246l250 -313l-53 -57l-320 254l-319 -254z" />
<glyph unicode="&#xfc;" horiz-adv-x="1308" d="M51 971v88h348v-600q0 -76 3.5 -120t13.5 -93t32.5 -74t61.5 -42t96 -17q158 0 301 219q-4 68 -4 119v452q0 37 -8 52.5t-35 15.5h-90v88h344v-682q0 -104 27 -184q18 -47 94 -123l-121 -121q-137 125 -176 235q-98 -125 -194.5 -174t-215.5 -49q-170 0 -255 103.5 t-85 273.5v565q0 68 -43 68h-94zM250 1396.5q0 59.5 34.5 92.5t96.5 33q59 0 97 -35t38 -90q0 -57 -38 -92t-97 -35t-95 33.5t-36 93zM791 1399q0 59 36.5 93t96.5 34q61 0 98 -35t37 -92q0 -53 -38 -89t-97.5 -36t-96 34t-36.5 91z" />
<glyph unicode="&#xfd;" horiz-adv-x="1191" d="M12 -311q4 29 27.5 49t58.5 20q59 0 84 -51q20 -45 86 -45t112 60.5t93 166.5l53 121l-376 883q-16 41 -34 59.5t-50 18.5h-39v88h333v-101l234 -593q29 -86 29 -150q14 68 53 152l231 505q10 23 13.5 43.5t-9 38t-43.5 17.5h-39v88h310v-90l-521 -1112 q-143 -309 -385 -310q-100 0 -162.5 41.5t-58.5 100.5zM406 1255l184 295h287q20 0 4 -12l-383 -283h-92z" />
<glyph unicode="&#xfe;" horiz-adv-x="1271" d="M66 -324h90q47 0 47 66v1667q0 53 -43 53h-90v86h331v-590q152 137 328 138q203 0 321.5 -146.5t118.5 -433.5q0 -244 -103 -399.5t-321 -155.5q-109 0 -183.5 36t-158.5 114v-371q0 -63 50 -64h94v-90h-481v90zM395 770q14 -106 15 -162v-340q135 -164 268 -164 q129 0 195.5 106.5t66.5 305.5q0 440 -250 440q-94 0 -172 -61.5t-123 -124.5z" />
<glyph unicode="&#xff;" horiz-adv-x="1191" d="M12 -311q4 29 27.5 49t58.5 20q59 0 84 -51q20 -45 86 -45t112 60.5t93 166.5l53 121l-376 883q-16 41 -34 59.5t-50 18.5h-39v88h333v-101l234 -593q29 -86 29 -150q14 68 53 152l231 505q10 23 13.5 43.5t-9 38t-43.5 17.5h-39v88h310v-90l-521 -1112 q-143 -309 -385 -310q-100 0 -162.5 41.5t-58.5 100.5zM193 1396.5q0 59.5 34.5 92.5t96.5 33q59 0 97 -35t38 -90q0 -57 -38 -92t-97.5 -35t-95 33.5t-35.5 93zM733 1399q0 59 37 93t96 34q61 0 98 -35t37 -92q0 -53 -37.5 -89t-97 -36t-96.5 34t-37 91z" />
<glyph unicode="&#x152;" horiz-adv-x="2285" d="M131 729q0 397 175 584.5t480 187.5q262 0 418 -127v88h965v-340h-123q-2 78 -27.5 128t-70.5 73t-86 30t-99 7h-331v-537q88 0 268 4l270 7v-142l-538 8v-585l360 -2q61 0 98 5t84 24.5t70.5 68.5t26.5 129l127 4v-344h-994v88q-160 -127 -418 -127q-305 0 -480 186.5 t-175 581.5zM395 729q0 -186 29 -315t83 -196.5t121.5 -96.5t157.5 -29q190 0 293 138.5t103 498.5q0 152 -19.5 266.5t-53.5 185t-85 114.5t-108.5 60.5t-129.5 16.5q-92 0 -158.5 -28.5t-120.5 -97t-83 -199t-29 -318.5z" />
<glyph unicode="&#x153;" horiz-adv-x="1949" d="M98 528q0 72 10.5 140.5t43 149.5t86 140.5t149.5 99.5t223 40q221 0 348 -127q25 -25 50 -78q20 53 49 82q119 123 340 123q250 0 352 -142.5t102 -392.5v-2q0 -27 -7 -36t-27 -9h-695v-12q0 -412 303 -412q182 0 316 121l80 -104q-170 -147 -404 -148q-238 0 -362 121 q-31 31 -54 86q-23 -63 -45 -84q-127 -123 -346 -123q-106 0 -191 27.5t-138.5 75t-91 103.5t-57 123.5t-27 124t-7.5 113.5zM332 528q0 -434 278 -434q276 0 277 434q0 438 -277 439q-278 -1 -278 -439zM1126 621h498v12q0 180 -51 262t-176 82q-270 0 -271 -344v-12z" />
<glyph unicode="&#x178;" horiz-adv-x="1392" d="M31 1374v88h368v-110l291 -543q29 -53 53 -135l316 631q37 70 -33 69h-68v88h404v-88h-53q-33 0 -64 -59l-411 -762v-401q0 -33 10 -48.5t41 -15.5h139v-88h-612v88h139q31 0 40 15.5t9 48.5v393l-438 770q-33 59 -66 59h-65zM291 1792q0 59 34.5 92t96.5 33q59 0 97 -35 t38 -90q0 -57 -38 -92t-97.5 -35t-95 34t-35.5 93zM831 1794q0 59 37 93t97 34q61 0 98 -35t37 -92q0 -53 -38 -89t-97.5 -36t-96.5 34t-37 91z" />
<glyph unicode="&#x2c6;" horiz-adv-x="1228" d="M240 1468l252 314h245l250 -314l-53 -57l-320 254l-319 -254z" />
<glyph unicode="&#x2dc;" horiz-adv-x="1228" d="M162 1573q49 78 123.5 121t124.5 47l51 6q123 0 268 -107q90 -66 127 -65q72 0 129 84l80 -82q-37 -59 -97.5 -92t-103.5 -37l-41 -4q-88 -2 -198 76q-127 82 -203 82q-10 0 -28.5 -3.5t-65.5 -31t-86 -76.5z" />
<glyph unicode="&#x2000;" horiz-adv-x="993" />
<glyph unicode="&#x2001;" horiz-adv-x="1988" />
<glyph unicode="&#x2002;" horiz-adv-x="993" />
<glyph unicode="&#x2003;" horiz-adv-x="1988" />
<glyph unicode="&#x2004;" horiz-adv-x="661" />
<glyph unicode="&#x2005;" horiz-adv-x="495" />
<glyph unicode="&#x2006;" horiz-adv-x="329" />
<glyph unicode="&#x2007;" horiz-adv-x="329" />
<glyph unicode="&#x2008;" horiz-adv-x="247" />
<glyph unicode="&#x2009;" horiz-adv-x="397" />
<glyph unicode="&#x200a;" horiz-adv-x="108" />
<glyph unicode="&#x2010;" horiz-adv-x="776" d="M111 430v141h553v-141h-553z" />
<glyph unicode="&#x2011;" horiz-adv-x="776" d="M111 430v141h553v-141h-553z" />
<glyph unicode="&#x2012;" horiz-adv-x="776" d="M111 430v141h553v-141h-553z" />
<glyph unicode="&#x2013;" horiz-adv-x="1024" d="M102 430v141h818v-141h-818z" />
<glyph unicode="&#x2014;" horiz-adv-x="2048" d="M102 430v141h1844v-141h-1844z" />
<glyph unicode="&#x2018;" horiz-adv-x="559" d="M56 1451q5 11 30 11h260l172 -399h-102l-348 358q-17 19 -12 30z" />
<glyph unicode="&#x2019;" horiz-adv-x="495" d="M29 1063l172 399h260q25 0 30 -11t-12 -30l-348 -358h-102z" />
<glyph unicode="&#x201a;" horiz-adv-x="507" d="M-14 -199q6 6 18 16.5t43 45.5t56.5 76t51 104t35.5 131q33 23 80 23q51 0 85 -30t34 -77q0 -61 -46 -122.5t-118.5 -111t-118 -73t-88.5 -43.5z" />
<glyph unicode="&#x201c;" horiz-adv-x="942" d="M66 1421q-37 41 16 41h262l168 -399h-100zM449.5 1451q5.5 11 29.5 11h260l172 -399h-102l-348 358q-17 19 -11.5 30z" />
<glyph unicode="&#x201d;" horiz-adv-x="942" d="M31 1063l172 399h260q25 0 30 -11t-12 -30l-348 -358h-102zM430 1063l168 399h262q53 0 17 -41l-347 -358h-100z" />
<glyph unicode="&#x201e;" horiz-adv-x="794" d="M27 -199q6 6 18 16.5t43 45.5t56.5 76t51 104t35.5 131q33 23 80 23q51 0 85 -30t34 -77q0 -61 -46 -122.5t-118.5 -111t-118 -73t-88.5 -43.5zM446 -199q6 6 18.5 16.5t43.5 45.5t56.5 76t51 104t35.5 131q33 23 80 23q51 0 85 -30t34 -77q0 -61 -46 -122.5t-119 -111 t-118 -73t-88 -43.5z" />
<glyph unicode="&#x2022;" horiz-adv-x="798" d="M162 649.5q0 108.5 64.5 171t171 62.5t173 -64.5t66.5 -169.5q0 -102 -67.5 -167.5t-172.5 -65.5q-106 0 -170.5 62.5t-64.5 171z" />
<glyph unicode="&#x2026;" horiz-adv-x="1275" d="M55 84q0 57 37 91t98 34q59 0 95.5 -36t36.5 -89q0 -57 -36 -92t-96 -35q-61 0 -98 34t-37 93zM506 84q0 57 36 91t97 34q59 0 96 -36t37 -89q0 -57 -37 -92t-96 -35q-61 0 -97 34t-36 93zM961 84q0 57 35.5 91t97.5 34q59 0 96 -36t37 -89q0 -57 -37 -92t-96 -35 q-61 0 -97 34t-36 93z" />
<glyph unicode="&#x202f;" horiz-adv-x="397" />
<glyph unicode="&#x2039;" horiz-adv-x="845" d="M131 432v195l500 428l88 -92l-332 -369q-33 -41 -65 -53v-23q14 -6 30.5 -19.5t24.5 -23.5l10 -10l332 -371l-88 -90z" />
<glyph unicode="&#x203a;" horiz-adv-x="845" d="M131 94l332 371q33 41 65 53v23q-14 6 -30.5 19t-26.5 24l-8 10l-332 369l88 92l500 -428v-195l-500 -428z" />
<glyph unicode="&#x205f;" horiz-adv-x="495" />
<glyph unicode="&#x20ac;" horiz-adv-x="1484" d="M8 674v135l166 -6v10q0 174 59.5 309t160 216t223 122t260.5 41q98 0 186 -15.5t143.5 -35.5t97.5 -42t60 -36l18 -16v-234h-133q0 16 -6 41t-28.5 64t-57.5 69.5t-100.5 54t-149.5 23.5q-211 0 -338 -140t-127 -421v-10q494 8 719 14v-151l-721 16v-14q0 -135 28 -239.5 t71 -167t103 -101.5t120.5 -53.5t130.5 -14.5q250 0 416 225l104 -104q-86 -125 -211 -188.5t-325 -63.5q-145 0 -269.5 41t-223.5 124t-155.5 221t-56.5 321v14q-107 -4 -164 -8z" />
<glyph unicode="&#x2122;" horiz-adv-x="2299" d="M131 1247v217h758v-217h-76q0 47 -14.5 77t-41 42t-50 16t-58.5 4h-65v-735h104v-65h-354v65h102v735h-65q-47 0 -77 -6t-57.5 -38.5t-27.5 -94.5h-78zM944 586v65h88l78 748h-106v65h307l209 -561q18 -47 22 -100h12l21 86l203 575h311v-65h-102l86 -748h96v-65h-330v65 h82l-57 645q-2 45 10 119h-16l-33 -119l-238 -641h-104l-246 641q-18 55 -27 119h-16v-133l-43 -631h76v-65h-283z" />
<glyph unicode="&#xe000;" horiz-adv-x="1060" d="M0 1060h1060v-1060h-1060v1060z" />
<glyph unicode="&#xfb01;" horiz-adv-x="1398" d="M51 932v133l172 -10v147q0 184 96.5 288.5t260.5 104.5q303 0 303 -143q0 -33 -19.5 -54.5t-54.5 -21.5q-29 0 -49.5 9.5t-25.5 15.5t-19 26q-39 47 -111 48q-106 0 -140 -73t-34 -200v-145l369 12v-137l-369 6v-786q0 -59 31 -64h133v-88h-506v88h90q27 0 36 15.5 t9 48.5v784zM870 0v88h91q27 0 35 14.5t8 49.5v905h210v-905q0 -35 7.5 -49.5t33.5 -14.5h93v-88h-478zM954 1432q0 131 142 131q72 0 107.5 -36t35.5 -95q0 -61 -39 -97.5t-104.5 -36.5t-103.5 36.5t-38 97.5z" />
<glyph unicode="&#xfb02;" horiz-adv-x="1419" d="M51 932v133l172 -10v147q0 180 105 289q61 61 157.5 82.5t270.5 21.5q96 0 215 -12t190 -24l72 -13v-1394q0 -35 8 -49.5t35 -14.5h92v-88h-477v88h90q29 0 36 14.5t7 49.5v1265q-127 63 -289 64q-199 0 -256 -66q-49 -55 -49 -213v-145l369 12v-137l-369 6v-786 q0 -59 31 -64h131v-88h-504v88h90q27 0 36 15.5t9 48.5v784z" />
<glyph unicode="&#xfb03;" horiz-adv-x="2199" d="M51 932v133l172 -10v147q0 184 96.5 288.5t260.5 104.5q303 0 303 -143q0 -33 -19.5 -54.5t-54.5 -21.5q-29 0 -49.5 9.5t-25.5 15.5t-19 26q-39 47 -111 48q-106 0 -140 -73t-34 -200v-145l592 -2v147q0 184 96 288.5t260 104.5q303 0 303 -143q0 -33 -19.5 -54.5 t-53.5 -21.5q-29 0 -49.5 9.5t-25.5 15.5t-20 26q-39 47 -110 48q-106 0 -140 -73t-34 -200v-145l368 12v-137l-368 6v-786q0 -59 31 -64h133v-88h-506v88h90q27 0 36 15.5t9 48.5v784l-592 2v-786q0 -59 31 -64h133v-88h-506v88h90q27 0 36 15.5t9 48.5v784zM1671 0v88h90 q27 0 36 15.5t9 48.5v905h209v-905q0 -35 7.5 -49.5t33.5 -14.5h92v-88h-477zM1755 1432q0 131 141 131q72 0 108 -36t36 -95q0 -61 -39 -97.5t-104.5 -36.5t-103.5 36.5t-38 97.5z" />
<glyph unicode="&#xfb04;" horiz-adv-x="2215" d="M51 932v133l172 -10v147q0 184 96.5 288.5t260.5 104.5q303 0 303 -143q0 -33 -19.5 -54.5t-54.5 -21.5q-29 0 -49.5 9.5t-25.5 15.5t-19 26q-39 47 -111 48q-106 0 -140 -73t-34 -200v-145l592 -2v147q0 209 120 301t349 92q121 0 256 -11t209 -23l74 -13v-1396 q0 -33 9 -48.5t36 -15.5h90v-88h-479v88h94q43 0 43 64v1265q-94 63 -287 64q-74 0 -128 -8.5t-87 -30t-52.5 -41t-27.5 -57t-10 -64.5t-2 -78v-145l368 12v-137l-368 6v-786q0 -59 31 -64h133v-88h-506v88h90q27 0 36 15.5t9 48.5v784l-592 2v-786q0 -59 31 -64h133v-88 h-506v88h90q27 0 36 15.5t9 48.5v784z" />
<glyph horiz-adv-x="520" />
</font>
</defs>
</svg>
